G04 #@! TF.GenerationSoftware,KiCad,Pcbnew,9.0.1-rc1-12-g22ef794f43-dirty*
G04 #@! TF.CreationDate,2025-04-02T12:11:46+02:00*
G04 #@! TF.ProjectId,BackPanel,4261636b-5061-46e6-956c-2e6b69636164,rev?*
G04 #@! TF.SameCoordinates,Original*
G04 #@! TF.FileFunction,Paste,Top*
G04 #@! TF.FilePolarity,Positive*
%FSLAX46Y46*%
G04 Gerber Fmt 4.6, Leading zero omitted, Abs format (unit mm)*
G04 Created by KiCad (PCBNEW 9.0.1-rc1-12-g22ef794f43-dirty) date 2025-04-02 12:11:46*
%MOMM*%
%LPD*%
G01*
G04 APERTURE LIST*
G04 Aperture macros list*
%AMRoundRect*
0 Rectangle with rounded corners*
0 $1 Rounding radius*
0 $2 $3 $4 $5 $6 $7 $8 $9 X,Y pos of 4 corners*
0 Add a 4 corners polygon primitive as box body*
4,1,4,$2,$3,$4,$5,$6,$7,$8,$9,$2,$3,0*
0 Add four circle primitives for the rounded corners*
1,1,$1+$1,$2,$3*
1,1,$1+$1,$4,$5*
1,1,$1+$1,$6,$7*
1,1,$1+$1,$8,$9*
0 Add four rect primitives between the rounded corners*
20,1,$1+$1,$2,$3,$4,$5,0*
20,1,$1+$1,$4,$5,$6,$7,0*
20,1,$1+$1,$6,$7,$8,$9,0*
20,1,$1+$1,$8,$9,$2,$3,0*%
G04 Aperture macros list end*
%ADD10C,0.000000*%
%ADD11RoundRect,0.079500X-0.079500X-0.100500X0.079500X-0.100500X0.079500X0.100500X-0.079500X0.100500X0*%
%ADD12RoundRect,0.079500X-0.100500X0.079500X-0.100500X-0.079500X0.100500X-0.079500X0.100500X0.079500X0*%
%ADD13RoundRect,0.079500X0.079500X0.100500X-0.079500X0.100500X-0.079500X-0.100500X0.079500X-0.100500X0*%
%ADD14R,0.630000X0.210000*%
%ADD15R,0.210000X0.630000*%
%ADD16R,1.400000X1.400000*%
%ADD17R,0.700001X0.200000*%
%ADD18R,0.599999X0.200000*%
%ADD19R,0.200000X0.599999*%
%ADD20RoundRect,0.125000X0.537500X0.125000X-0.537500X0.125000X-0.537500X-0.125000X0.537500X-0.125000X0*%
%ADD21RoundRect,0.225000X0.250000X-0.225000X0.250000X0.225000X-0.250000X0.225000X-0.250000X-0.225000X0*%
%ADD22RoundRect,0.100000X-0.225000X-0.100000X0.225000X-0.100000X0.225000X0.100000X-0.225000X0.100000X0*%
%ADD23R,0.200000X0.899998*%
%ADD24R,0.200000X0.800000*%
%ADD25R,0.800000X0.200000*%
%ADD26RoundRect,0.225000X0.225000X0.250000X-0.225000X0.250000X-0.225000X-0.250000X0.225000X-0.250000X0*%
%ADD27R,0.375000X1.096000*%
%ADD28R,0.249999X1.100000*%
%ADD29R,0.800000X0.250000*%
%ADD30R,1.520000X0.250000*%
%ADD31R,5.200000X3.000000*%
%ADD32R,2.000000X0.700000*%
%ADD33R,1.075000X0.300000*%
%ADD34RoundRect,0.225000X-0.225000X-0.250000X0.225000X-0.250000X0.225000X0.250000X-0.225000X0.250000X0*%
%ADD35RoundRect,0.225000X-0.250000X0.225000X-0.250000X-0.225000X0.250000X-0.225000X0.250000X0.225000X0*%
%ADD36RoundRect,0.200000X0.275000X-0.200000X0.275000X0.200000X-0.275000X0.200000X-0.275000X-0.200000X0*%
%ADD37RoundRect,0.200000X-0.275000X0.200000X-0.275000X-0.200000X0.275000X-0.200000X0.275000X0.200000X0*%
%ADD38R,0.600000X1.240000*%
%ADD39R,0.300000X1.240000*%
%ADD40RoundRect,0.200000X0.200000X0.275000X-0.200000X0.275000X-0.200000X-0.275000X0.200000X-0.275000X0*%
G04 APERTURE END LIST*
D10*
G04 #@! TO.C,U65*
G36*
X52674903Y-194374998D02*
G01*
X51924901Y-194374998D01*
X51924901Y-194224999D01*
X52674903Y-194224999D01*
X52674903Y-194374998D01*
G37*
G36*
X52674903Y-194775000D02*
G01*
X51924901Y-194775000D01*
X51924901Y-194624998D01*
X52674903Y-194624998D01*
X52674903Y-194775000D01*
G37*
G36*
X52674903Y-195174999D02*
G01*
X51924901Y-195174999D01*
X51924901Y-195025000D01*
X52674903Y-195025000D01*
X52674903Y-195174999D01*
G37*
G36*
X53074950Y-194374976D02*
G01*
X52924950Y-194374976D01*
X52924950Y-193624974D01*
X53074950Y-193624974D01*
X53074950Y-194374976D01*
G37*
G36*
X53074950Y-195775024D02*
G01*
X52924950Y-195775024D01*
X52924950Y-195025022D01*
X53074950Y-195025022D01*
X53074950Y-195775024D01*
G37*
G36*
X53474952Y-194374976D02*
G01*
X53324952Y-194374976D01*
X53324952Y-193624974D01*
X53474952Y-193624974D01*
X53474952Y-194374976D01*
G37*
G36*
X53474952Y-195775024D02*
G01*
X53324952Y-195775024D01*
X53324952Y-195025022D01*
X53474952Y-195025022D01*
X53474952Y-195775024D01*
G37*
G36*
X54475001Y-194374998D02*
G01*
X53724999Y-194374998D01*
X53724999Y-194224999D01*
X54475001Y-194224999D01*
X54475001Y-194374998D01*
G37*
G36*
X54475001Y-194775000D02*
G01*
X53724999Y-194775000D01*
X53724999Y-194624998D01*
X54475001Y-194624998D01*
X54475001Y-194775000D01*
G37*
G36*
X54475001Y-195174999D02*
G01*
X53724999Y-195174999D01*
X53724999Y-195025000D01*
X54475001Y-195025000D01*
X54475001Y-195174999D01*
G37*
G04 #@! TO.C,U2*
G36*
X5550499Y-102025001D02*
G01*
X5550499Y-103024999D01*
X5500499Y-103074999D01*
X5225499Y-103074999D01*
X5175499Y-103024999D01*
X5175499Y-102025001D01*
X5225499Y-101974999D01*
X5500499Y-101974999D01*
X5550499Y-102025001D01*
G37*
G36*
X7749999Y-102025499D02*
G01*
X7749999Y-102300500D01*
X7700000Y-102350500D01*
X7550000Y-102350500D01*
X7500000Y-102300500D01*
X7500000Y-102025499D01*
X7550000Y-101975499D01*
X7700000Y-101975499D01*
X7749999Y-102025499D01*
G37*
G36*
X7749999Y-105549500D02*
G01*
X7749999Y-105824501D01*
X7700000Y-105874501D01*
X7550000Y-105874501D01*
X7500000Y-105824501D01*
X7500000Y-105549500D01*
X7550000Y-105499500D01*
X7700000Y-105499500D01*
X7749999Y-105549500D01*
G37*
G36*
X7817500Y-104424999D02*
G01*
X7817500Y-105255000D01*
X7767500Y-105305000D01*
X7352500Y-105305000D01*
X7302500Y-105255000D01*
X7302500Y-104424999D01*
X7352500Y-104374999D01*
X7767500Y-104374999D01*
X7817500Y-104424999D01*
G37*
G36*
X7817500Y-102595000D02*
G01*
X7817500Y-103425001D01*
X7767500Y-103475001D01*
X7352500Y-103475001D01*
X7302500Y-103425001D01*
X7302500Y-102595000D01*
X7352500Y-102545000D01*
X7767500Y-102545000D01*
X7817500Y-102595000D01*
G37*
G36*
X8249998Y-102025499D02*
G01*
X8249998Y-102300500D01*
X8199999Y-102350500D01*
X8049999Y-102350500D01*
X7999999Y-102300500D01*
X7999999Y-102025499D01*
X8049999Y-101975499D01*
X8199999Y-101975499D01*
X8249998Y-102025499D01*
G37*
G36*
X8249998Y-105549500D02*
G01*
X8249998Y-105824501D01*
X8199999Y-105874501D01*
X8049999Y-105874501D01*
X7999999Y-105824501D01*
X7999999Y-105549500D01*
X8049999Y-105499500D01*
X8199999Y-105499500D01*
X8249998Y-105549500D01*
G37*
G36*
X8750000Y-102025499D02*
G01*
X8750000Y-102300500D01*
X8700000Y-102350500D01*
X8549998Y-102350500D01*
X8499998Y-102300500D01*
X8499998Y-102025499D01*
X8549998Y-101975499D01*
X8700000Y-101975499D01*
X8750000Y-102025499D01*
G37*
G36*
X8750000Y-105549500D02*
G01*
X8750000Y-105824501D01*
X8700000Y-105874501D01*
X8549998Y-105874501D01*
X8499998Y-105824501D01*
X8499998Y-105549500D01*
X8549998Y-105499500D01*
X8700000Y-105499500D01*
X8750000Y-105549500D01*
G37*
G36*
X8634999Y-102595000D02*
G01*
X8634999Y-103425001D01*
X8584999Y-103475001D01*
X8065000Y-103475001D01*
X8015000Y-103425001D01*
X8015000Y-102595000D01*
X8065000Y-102545000D01*
X8584999Y-102545000D01*
X8634999Y-102595000D01*
G37*
G36*
X8634999Y-104424999D02*
G01*
X8634999Y-105255000D01*
X8584999Y-105305000D01*
X8065000Y-105305000D01*
X8015000Y-105255000D01*
X8015000Y-104424999D01*
X8065000Y-104374999D01*
X8584999Y-104374999D01*
X8634999Y-104424999D01*
G37*
G36*
X9352498Y-104424999D02*
G01*
X9352498Y-105255000D01*
X9302498Y-105305000D01*
X8887498Y-105305000D01*
X8837498Y-105255000D01*
X8837498Y-104424999D01*
X8887498Y-104374999D01*
X9302498Y-104374999D01*
X9352498Y-104424999D01*
G37*
G36*
X9352498Y-102595000D02*
G01*
X9352498Y-103425001D01*
X9302498Y-103475001D01*
X8887498Y-103475001D01*
X8837498Y-103425001D01*
X8837498Y-102595000D01*
X8887498Y-102545000D01*
X9302498Y-102545000D01*
X9352498Y-102595000D01*
G37*
G36*
X9249999Y-102025499D02*
G01*
X9249999Y-102300500D01*
X9199999Y-102350500D01*
X9049999Y-102350500D01*
X8999999Y-102300500D01*
X8999999Y-102025499D01*
X9049999Y-101975499D01*
X9199999Y-101975499D01*
X9249999Y-102025499D01*
G37*
G36*
X9249999Y-105549500D02*
G01*
X9249999Y-105824501D01*
X9199999Y-105874501D01*
X9049999Y-105874501D01*
X8999999Y-105824501D01*
X8999999Y-105549500D01*
X9049999Y-105499500D01*
X9199999Y-105499500D01*
X9249999Y-105549500D01*
G37*
G04 #@! TO.C,U1*
G36*
X10661499Y-119859497D02*
G01*
X10661499Y-120134498D01*
X10611499Y-120184498D01*
X10461499Y-120184498D01*
X10411499Y-120134498D01*
X10411499Y-119859497D01*
X10461499Y-119809497D01*
X10611499Y-119809497D01*
X10661499Y-119859497D01*
G37*
G36*
X10661499Y-123383498D02*
G01*
X10661499Y-123658499D01*
X10611499Y-123708499D01*
X10461499Y-123708499D01*
X10411499Y-123658499D01*
X10411499Y-123383498D01*
X10461499Y-123333498D01*
X10611499Y-123333498D01*
X10661499Y-123383498D01*
G37*
G36*
X10824000Y-122258997D02*
G01*
X10824000Y-123088998D01*
X10774000Y-123138998D01*
X10359000Y-123138998D01*
X10309000Y-123088998D01*
X10309000Y-122258997D01*
X10359000Y-122208997D01*
X10774000Y-122208997D01*
X10824000Y-122258997D01*
G37*
G36*
X10824000Y-120428998D02*
G01*
X10824000Y-121258999D01*
X10774000Y-121308999D01*
X10359000Y-121308999D01*
X10309000Y-121258999D01*
X10309000Y-120428998D01*
X10359000Y-120378998D01*
X10774000Y-120378998D01*
X10824000Y-120428998D01*
G37*
G36*
X11646498Y-120428998D02*
G01*
X11646498Y-121258999D01*
X11596498Y-121308999D01*
X11076499Y-121308999D01*
X11026499Y-121258999D01*
X11026499Y-120428998D01*
X11076499Y-120378998D01*
X11596498Y-120378998D01*
X11646498Y-120428998D01*
G37*
G36*
X11646498Y-122258997D02*
G01*
X11646498Y-123088998D01*
X11596498Y-123138998D01*
X11076499Y-123138998D01*
X11026499Y-123088998D01*
X11026499Y-122258997D01*
X11076499Y-122208997D01*
X11596498Y-122208997D01*
X11646498Y-122258997D01*
G37*
G36*
X11161500Y-119859497D02*
G01*
X11161500Y-120134498D01*
X11111500Y-120184498D01*
X10961498Y-120184498D01*
X10911498Y-120134498D01*
X10911498Y-119859497D01*
X10961498Y-119809497D01*
X11111500Y-119809497D01*
X11161500Y-119859497D01*
G37*
G36*
X11161500Y-123383498D02*
G01*
X11161500Y-123658499D01*
X11111500Y-123708499D01*
X10961498Y-123708499D01*
X10911498Y-123658499D01*
X10911498Y-123383498D01*
X10961498Y-123333498D01*
X11111500Y-123333498D01*
X11161500Y-123383498D01*
G37*
G36*
X11661499Y-119859497D02*
G01*
X11661499Y-120134498D01*
X11611499Y-120184498D01*
X11461499Y-120184498D01*
X11411500Y-120134498D01*
X11411500Y-119859497D01*
X11461499Y-119809497D01*
X11611499Y-119809497D01*
X11661499Y-119859497D01*
G37*
G36*
X11661499Y-123383498D02*
G01*
X11661499Y-123658499D01*
X11611499Y-123708499D01*
X11461499Y-123708499D01*
X11411500Y-123658499D01*
X11411500Y-123383498D01*
X11461499Y-123333498D01*
X11611499Y-123333498D01*
X11661499Y-123383498D01*
G37*
G36*
X12358998Y-122258997D02*
G01*
X12358998Y-123088998D01*
X12308998Y-123138998D01*
X11893998Y-123138998D01*
X11843998Y-123088998D01*
X11843998Y-122258997D01*
X11893998Y-122208997D01*
X12308998Y-122208997D01*
X12358998Y-122258997D01*
G37*
G36*
X12358998Y-120428998D02*
G01*
X12358998Y-121258999D01*
X12308998Y-121308999D01*
X11893998Y-121308999D01*
X11843998Y-121258999D01*
X11843998Y-120428998D01*
X11893998Y-120378998D01*
X12308998Y-120378998D01*
X12358998Y-120428998D01*
G37*
G36*
X12161498Y-119859497D02*
G01*
X12161498Y-120134498D01*
X12111498Y-120184498D01*
X11961498Y-120184498D01*
X11911499Y-120134498D01*
X11911499Y-119859497D01*
X11961498Y-119809497D01*
X12111498Y-119809497D01*
X12161498Y-119859497D01*
G37*
G36*
X12161498Y-123383498D02*
G01*
X12161498Y-123658499D01*
X12111498Y-123708499D01*
X11961498Y-123708499D01*
X11911499Y-123658499D01*
X11911499Y-123383498D01*
X11961498Y-123333498D01*
X12111498Y-123333498D01*
X12161498Y-123383498D01*
G37*
G36*
X14485999Y-122658999D02*
G01*
X14485999Y-123658997D01*
X14435999Y-123708999D01*
X14160999Y-123708999D01*
X14110999Y-123658997D01*
X14110999Y-122658999D01*
X14160999Y-122608999D01*
X14435999Y-122608999D01*
X14485999Y-122658999D01*
G37*
G04 #@! TO.C,U15*
G36*
X77674903Y-194374998D02*
G01*
X76924901Y-194374998D01*
X76924901Y-194224999D01*
X77674903Y-194224999D01*
X77674903Y-194374998D01*
G37*
G36*
X77674903Y-194775000D02*
G01*
X76924901Y-194775000D01*
X76924901Y-194624998D01*
X77674903Y-194624998D01*
X77674903Y-194775000D01*
G37*
G36*
X77674903Y-195174999D02*
G01*
X76924901Y-195174999D01*
X76924901Y-195025000D01*
X77674903Y-195025000D01*
X77674903Y-195174999D01*
G37*
G36*
X78074950Y-194374976D02*
G01*
X77924950Y-194374976D01*
X77924950Y-193624974D01*
X78074950Y-193624974D01*
X78074950Y-194374976D01*
G37*
G36*
X78074950Y-195775024D02*
G01*
X77924950Y-195775024D01*
X77924950Y-195025022D01*
X78074950Y-195025022D01*
X78074950Y-195775024D01*
G37*
G36*
X78474952Y-194374976D02*
G01*
X78324952Y-194374976D01*
X78324952Y-193624974D01*
X78474952Y-193624974D01*
X78474952Y-194374976D01*
G37*
G36*
X78474952Y-195775024D02*
G01*
X78324952Y-195775024D01*
X78324952Y-195025022D01*
X78474952Y-195025022D01*
X78474952Y-195775024D01*
G37*
G36*
X79475001Y-194374998D02*
G01*
X78724999Y-194374998D01*
X78724999Y-194224999D01*
X79475001Y-194224999D01*
X79475001Y-194374998D01*
G37*
G36*
X79475001Y-194775000D02*
G01*
X78724999Y-194775000D01*
X78724999Y-194624998D01*
X79475001Y-194624998D01*
X79475001Y-194775000D01*
G37*
G36*
X79475001Y-195174999D02*
G01*
X78724999Y-195174999D01*
X78724999Y-195025000D01*
X79475001Y-195025000D01*
X79475001Y-195174999D01*
G37*
G04 #@! TO.C,U40*
G36*
X102677192Y-194361932D02*
G01*
X101927190Y-194361932D01*
X101927190Y-194211933D01*
X102677192Y-194211933D01*
X102677192Y-194361932D01*
G37*
G36*
X102677192Y-194761934D02*
G01*
X101927190Y-194761934D01*
X101927190Y-194611932D01*
X102677192Y-194611932D01*
X102677192Y-194761934D01*
G37*
G36*
X102677192Y-195161933D02*
G01*
X101927190Y-195161933D01*
X101927190Y-195011934D01*
X102677192Y-195011934D01*
X102677192Y-195161933D01*
G37*
G36*
X103077239Y-194361910D02*
G01*
X102927239Y-194361910D01*
X102927239Y-193611908D01*
X103077239Y-193611908D01*
X103077239Y-194361910D01*
G37*
G36*
X103077239Y-195761958D02*
G01*
X102927239Y-195761958D01*
X102927239Y-195011956D01*
X103077239Y-195011956D01*
X103077239Y-195761958D01*
G37*
G36*
X103477241Y-194361910D02*
G01*
X103327241Y-194361910D01*
X103327241Y-193611908D01*
X103477241Y-193611908D01*
X103477241Y-194361910D01*
G37*
G36*
X103477241Y-195761958D02*
G01*
X103327241Y-195761958D01*
X103327241Y-195011956D01*
X103477241Y-195011956D01*
X103477241Y-195761958D01*
G37*
G36*
X104477290Y-194361932D02*
G01*
X103727288Y-194361932D01*
X103727288Y-194211933D01*
X104477290Y-194211933D01*
X104477290Y-194361932D01*
G37*
G36*
X104477290Y-194761934D02*
G01*
X103727288Y-194761934D01*
X103727288Y-194611932D01*
X104477290Y-194611932D01*
X104477290Y-194761934D01*
G37*
G36*
X104477290Y-195161933D02*
G01*
X103727288Y-195161933D01*
X103727288Y-195011934D01*
X104477290Y-195011934D01*
X104477290Y-195161933D01*
G37*
G04 #@! TD*
D11*
G04 #@! TO.C,C80*
X42910000Y-138750000D03*
X43600000Y-138750000D03*
G04 #@! TD*
G04 #@! TO.C,R150*
X420935000Y-199882143D03*
X421625000Y-199882143D03*
G04 #@! TD*
D12*
G04 #@! TO.C,R161*
X420062500Y-208500000D03*
X420062500Y-209190000D03*
G04 #@! TD*
G04 #@! TO.C,R158*
X422275000Y-208500000D03*
X422275000Y-209190000D03*
G04 #@! TD*
D11*
G04 #@! TO.C,C23*
X67885000Y-153100000D03*
X68575000Y-153100000D03*
G04 #@! TD*
D13*
G04 #@! TO.C,R111*
X21925000Y-87900000D03*
X21235000Y-87900000D03*
G04 #@! TD*
D14*
G04 #@! TO.C,U41*
X86872289Y-114236934D03*
X86872289Y-113836934D03*
X86872289Y-113436934D03*
X86872289Y-113036934D03*
D15*
X86212289Y-112376934D03*
X85812289Y-112376934D03*
X85412289Y-112376934D03*
X85012289Y-112376934D03*
D14*
X84352289Y-113036934D03*
X84352289Y-113436934D03*
X84352289Y-113836934D03*
X84352289Y-114236934D03*
D15*
X85012289Y-114896934D03*
X85412289Y-114896934D03*
X85812289Y-114896934D03*
X86212289Y-114896934D03*
D16*
X85612289Y-113636934D03*
G04 #@! TD*
D11*
G04 #@! TO.C,C67*
X92857289Y-106791934D03*
X93547289Y-106791934D03*
G04 #@! TD*
D17*
G04 #@! TO.C,U42*
X91759790Y-138017492D03*
D18*
X91809790Y-137617493D03*
X91809790Y-137217493D03*
X91809790Y-136817494D03*
D19*
X91609788Y-136217493D03*
X91209789Y-136217493D03*
X90809789Y-136217493D03*
X90409790Y-136217493D03*
D18*
X90209788Y-136817494D03*
X90209788Y-137217493D03*
X90209788Y-137617493D03*
X90209788Y-138017492D03*
D19*
X90409790Y-138617493D03*
X90809789Y-138617493D03*
X91209789Y-138617493D03*
X91609788Y-138617493D03*
G04 #@! TD*
D12*
G04 #@! TO.C,R7*
X10046000Y-91992174D03*
X10046000Y-92682174D03*
G04 #@! TD*
D20*
G04 #@! TO.C,U6*
X62975000Y-170050000D03*
X62975000Y-169400000D03*
X62975000Y-168750000D03*
X62975000Y-168100000D03*
X60700000Y-168100000D03*
X60700000Y-168750000D03*
X60700000Y-169400000D03*
X60700000Y-170050000D03*
G04 #@! TD*
D13*
G04 #@! TO.C,R63*
X28550000Y-94300000D03*
X27860000Y-94300000D03*
G04 #@! TD*
D11*
G04 #@! TO.C,C34*
X78785000Y-192300000D03*
X79475000Y-192300000D03*
G04 #@! TD*
G04 #@! TO.C,C21*
X67810000Y-114750000D03*
X68500000Y-114750000D03*
G04 #@! TD*
D14*
G04 #@! TO.C,U23*
X61870000Y-139000000D03*
X61870000Y-138600000D03*
X61870000Y-138200000D03*
X61870000Y-137800000D03*
D15*
X61210000Y-137140000D03*
X60810000Y-137140000D03*
X60410000Y-137140000D03*
X60010000Y-137140000D03*
D14*
X59350000Y-137800000D03*
X59350000Y-138200000D03*
X59350000Y-138600000D03*
X59350000Y-139000000D03*
D15*
X60010000Y-139660000D03*
X60410000Y-139660000D03*
X60810000Y-139660000D03*
X61210000Y-139660000D03*
D16*
X60610000Y-138400000D03*
G04 #@! TD*
D11*
G04 #@! TO.C,C66*
X92937289Y-151661934D03*
X93627289Y-151661934D03*
G04 #@! TD*
G04 #@! TO.C,C63*
X85177289Y-165786934D03*
X85867289Y-165786934D03*
G04 #@! TD*
D13*
G04 #@! TO.C,R72*
X28550000Y-93100000D03*
X27860000Y-93100000D03*
G04 #@! TD*
D11*
G04 #@! TO.C,C52*
X87637289Y-154211934D03*
X88327289Y-154211934D03*
G04 #@! TD*
G04 #@! TO.C,C17*
X60175000Y-165800000D03*
X60865000Y-165800000D03*
G04 #@! TD*
D12*
G04 #@! TO.C,C57*
X86302289Y-115936934D03*
X86302289Y-116626934D03*
G04 #@! TD*
D13*
G04 #@! TO.C,R132*
X25700000Y-85100000D03*
X25010000Y-85100000D03*
G04 #@! TD*
G04 #@! TO.C,R36*
X28550000Y-97900000D03*
X27860000Y-97900000D03*
G04 #@! TD*
G04 #@! TO.C,R24*
X36780000Y-147550000D03*
X36090000Y-147550000D03*
G04 #@! TD*
D11*
G04 #@! TO.C,C77*
X37635000Y-154225000D03*
X38325000Y-154225000D03*
G04 #@! TD*
D21*
G04 #@! TO.C,C10*
X13380000Y-105825000D03*
X13380000Y-104275000D03*
G04 #@! TD*
D13*
G04 #@! TO.C,R48*
X21925000Y-96300000D03*
X21235000Y-96300000D03*
G04 #@! TD*
D12*
G04 #@! TO.C,C79*
X36300000Y-115950000D03*
X36300000Y-116640000D03*
G04 #@! TD*
D13*
G04 #@! TO.C,R42*
X25700000Y-97100000D03*
X25010000Y-97100000D03*
G04 #@! TD*
G04 #@! TO.C,R19*
X61750000Y-144350000D03*
X61060000Y-144350000D03*
G04 #@! TD*
D12*
G04 #@! TO.C,R8*
X12546000Y-91992174D03*
X12546000Y-92682174D03*
G04 #@! TD*
D11*
G04 #@! TO.C,C49*
X92937289Y-165011934D03*
X93627289Y-165011934D03*
G04 #@! TD*
D13*
G04 #@! TO.C,C68*
X37975000Y-148850000D03*
X37285000Y-148850000D03*
G04 #@! TD*
D11*
G04 #@! TO.C,C96*
X42860000Y-150550000D03*
X43550000Y-150550000D03*
G04 #@! TD*
D12*
G04 #@! TO.C,R160*
X420800000Y-208500000D03*
X420800000Y-209190000D03*
G04 #@! TD*
D13*
G04 #@! TO.C,C48*
X88292289Y-160511934D03*
X87602289Y-160511934D03*
G04 #@! TD*
G04 #@! TO.C,R60*
X25700000Y-94700000D03*
X25010000Y-94700000D03*
G04 #@! TD*
D11*
G04 #@! TO.C,C104*
X91887289Y-170986934D03*
X92577289Y-170986934D03*
G04 #@! TD*
D12*
G04 #@! TO.C,R9*
X9246000Y-91992174D03*
X9246000Y-92682174D03*
G04 #@! TD*
D15*
G04 #@! TO.C,U3*
X90790000Y-190365000D03*
X90390000Y-190365000D03*
X89990000Y-190365000D03*
X89590000Y-190365000D03*
D14*
X88930000Y-191025000D03*
X88930000Y-191425000D03*
X88930000Y-191825000D03*
X88930000Y-192225000D03*
D15*
X89590000Y-192885000D03*
X89990000Y-192885000D03*
X90390000Y-192885000D03*
X90790000Y-192885000D03*
D14*
X91450000Y-192225000D03*
X91450000Y-191825000D03*
X91450000Y-191425000D03*
X91450000Y-191025000D03*
D16*
X90190000Y-191625000D03*
G04 #@! TD*
D14*
G04 #@! TO.C,U16*
X61870000Y-114250000D03*
X61870000Y-113850000D03*
X61870000Y-113450000D03*
X61870000Y-113050000D03*
D15*
X61210000Y-112390000D03*
X60810000Y-112390000D03*
X60410000Y-112390000D03*
X60010000Y-112390000D03*
D14*
X59350000Y-113050000D03*
X59350000Y-113450000D03*
X59350000Y-113850000D03*
X59350000Y-114250000D03*
D15*
X60010000Y-114910000D03*
X60410000Y-114910000D03*
X60810000Y-114910000D03*
X61210000Y-114910000D03*
D16*
X60610000Y-113650000D03*
G04 #@! TD*
D22*
G04 #@! TO.C,U4*
X9525000Y-95000000D03*
X9525000Y-95650000D03*
X9525000Y-96300000D03*
X11425000Y-96300000D03*
X11425000Y-95650000D03*
X11425000Y-95000000D03*
G04 #@! TD*
D13*
G04 #@! TO.C,R54*
X28550000Y-95500000D03*
X27860000Y-95500000D03*
G04 #@! TD*
G04 #@! TO.C,R66*
X21925000Y-93900000D03*
X21235000Y-93900000D03*
G04 #@! TD*
G04 #@! TO.C,R39*
X21925000Y-97500000D03*
X21235000Y-97500000D03*
G04 #@! TD*
D20*
G04 #@! TO.C,U32*
X87977289Y-164586934D03*
X87977289Y-163936934D03*
X87977289Y-163286934D03*
X87977289Y-162636934D03*
X85702289Y-162636934D03*
X85702289Y-163286934D03*
X85702289Y-163936934D03*
X85702289Y-164586934D03*
G04 #@! TD*
D11*
G04 #@! TO.C,R156*
X420935000Y-205407143D03*
X421625000Y-205407143D03*
G04 #@! TD*
D13*
G04 #@! TO.C,R18*
X36772500Y-145150000D03*
X36082500Y-145150000D03*
G04 #@! TD*
D11*
G04 #@! TO.C,C47*
X92812289Y-114736934D03*
X93502289Y-114736934D03*
G04 #@! TD*
D17*
G04 #@! TO.C,U30*
X66757501Y-118058334D03*
D18*
X66807501Y-117658335D03*
X66807501Y-117258335D03*
X66807501Y-116858336D03*
D19*
X66607499Y-116258335D03*
X66207500Y-116258335D03*
X65807500Y-116258335D03*
X65407501Y-116258335D03*
D18*
X65207499Y-116858336D03*
X65207499Y-117258335D03*
X65207499Y-117658335D03*
X65207499Y-118058334D03*
D19*
X65407501Y-118658335D03*
X65807500Y-118658335D03*
X66207500Y-118658335D03*
X66607499Y-118658335D03*
G04 #@! TD*
D14*
G04 #@! TO.C,U25*
X61870000Y-122500000D03*
X61870000Y-122100000D03*
X61870000Y-121700000D03*
X61870000Y-121300000D03*
D15*
X61210000Y-120640000D03*
X60810000Y-120640000D03*
X60410000Y-120640000D03*
X60010000Y-120640000D03*
D14*
X59350000Y-121300000D03*
X59350000Y-121700000D03*
X59350000Y-122100000D03*
X59350000Y-122500000D03*
D15*
X60010000Y-123160000D03*
X60410000Y-123160000D03*
X60810000Y-123160000D03*
X61210000Y-123160000D03*
D16*
X60610000Y-121900000D03*
G04 #@! TD*
D23*
G04 #@! TO.C,U65*
X53399951Y-194050775D03*
D24*
X52999951Y-193999975D03*
D25*
X52299902Y-194300000D03*
X52299902Y-194699999D03*
X52299902Y-195099998D03*
D24*
X52999951Y-195400023D03*
X53399951Y-195400023D03*
D25*
X54100000Y-195099998D03*
X54100000Y-194699999D03*
X54100000Y-194300000D03*
G04 #@! TD*
D14*
G04 #@! TO.C,U63*
X36870000Y-153100000D03*
X36870000Y-152700000D03*
X36870000Y-152300000D03*
X36870000Y-151900000D03*
D15*
X36210000Y-151240000D03*
X35810000Y-151240000D03*
X35410000Y-151240000D03*
X35010000Y-151240000D03*
D14*
X34350000Y-151900000D03*
X34350000Y-152300000D03*
X34350000Y-152700000D03*
X34350000Y-153100000D03*
D15*
X35010000Y-153760000D03*
X35410000Y-153760000D03*
X35810000Y-153760000D03*
X36210000Y-153760000D03*
D16*
X35610000Y-152500000D03*
G04 #@! TD*
D12*
G04 #@! TO.C,C87*
X36350000Y-132560000D03*
X36350000Y-133250000D03*
G04 #@! TD*
G04 #@! TO.C,R164*
X416425000Y-208500000D03*
X416425000Y-209190000D03*
G04 #@! TD*
D17*
G04 #@! TO.C,U67*
X41757501Y-138030558D03*
D18*
X41807501Y-137630559D03*
X41807501Y-137230559D03*
X41807501Y-136830560D03*
D19*
X41607499Y-136230559D03*
X41207500Y-136230559D03*
X40807500Y-136230559D03*
X40407501Y-136230559D03*
D18*
X40207499Y-136830560D03*
X40207499Y-137230559D03*
X40207499Y-137630559D03*
X40207499Y-138030558D03*
D19*
X40407501Y-138630559D03*
X40807500Y-138630559D03*
X41207500Y-138630559D03*
X41607499Y-138630559D03*
G04 #@! TD*
D11*
G04 #@! TO.C,C60*
X92902289Y-118786934D03*
X93592289Y-118786934D03*
G04 #@! TD*
D21*
G04 #@! TO.C,C8*
X15550000Y-105825000D03*
X15550000Y-104275000D03*
G04 #@! TD*
D14*
G04 #@! TO.C,U14*
X61870000Y-175800000D03*
X61870000Y-175400000D03*
X61870000Y-175000000D03*
X61870000Y-174600000D03*
D15*
X61210000Y-173940000D03*
X60810000Y-173940000D03*
X60410000Y-173940000D03*
X60010000Y-173940000D03*
D14*
X59350000Y-174600000D03*
X59350000Y-175000000D03*
X59350000Y-175400000D03*
X59350000Y-175800000D03*
D15*
X60010000Y-176460000D03*
X60410000Y-176460000D03*
X60810000Y-176460000D03*
X61210000Y-176460000D03*
D16*
X60610000Y-175200000D03*
G04 #@! TD*
D11*
G04 #@! TO.C,R154*
X420935000Y-201460714D03*
X421625000Y-201460714D03*
G04 #@! TD*
D13*
G04 #@! TO.C,R78*
X25700000Y-92300000D03*
X25010000Y-92300000D03*
G04 #@! TD*
D17*
G04 #@! TO.C,U37*
X91759790Y-164336933D03*
D18*
X91809790Y-163936934D03*
X91809790Y-163536934D03*
X91809790Y-163136935D03*
D19*
X91609788Y-162536934D03*
X91209789Y-162536934D03*
X90809789Y-162536934D03*
X90409790Y-162536934D03*
D18*
X90209788Y-163136935D03*
X90209788Y-163536934D03*
X90209788Y-163936934D03*
X90209788Y-164336933D03*
D19*
X90409790Y-164936934D03*
X90809789Y-164936934D03*
X91209789Y-164936934D03*
X91609788Y-164936934D03*
G04 #@! TD*
D17*
G04 #@! TO.C,U55*
X91759790Y-118045268D03*
D18*
X91809790Y-117645269D03*
X91809790Y-117245269D03*
X91809790Y-116845270D03*
D19*
X91609788Y-116245269D03*
X91209789Y-116245269D03*
X90809789Y-116245269D03*
X90409790Y-116245269D03*
D18*
X90209788Y-116845270D03*
X90209788Y-117245269D03*
X90209788Y-117645269D03*
X90209788Y-118045268D03*
D19*
X90409790Y-118645269D03*
X90809789Y-118645269D03*
X91209789Y-118645269D03*
X91609788Y-118645269D03*
G04 #@! TD*
D11*
G04 #@! TO.C,C43*
X93037289Y-130786934D03*
X93727289Y-130786934D03*
G04 #@! TD*
D13*
G04 #@! TO.C,C4*
X5645000Y-110050000D03*
X4955000Y-110050000D03*
G04 #@! TD*
G04 #@! TO.C,R21*
X36750000Y-144350000D03*
X36060000Y-144350000D03*
G04 #@! TD*
G04 #@! TO.C,R69*
X25700000Y-93500000D03*
X25010000Y-93500000D03*
G04 #@! TD*
D11*
G04 #@! TO.C,C42*
X87577289Y-176386934D03*
X88267289Y-176386934D03*
G04 #@! TD*
D17*
G04 #@! TO.C,U52*
X91759790Y-106061933D03*
D18*
X91809790Y-105661934D03*
X91809790Y-105261934D03*
X91809790Y-104861935D03*
D19*
X91609788Y-104261934D03*
X91209789Y-104261934D03*
X90809789Y-104261934D03*
X90409790Y-104261934D03*
D18*
X90209788Y-104861935D03*
X90209788Y-105261934D03*
X90209788Y-105661934D03*
X90209788Y-106061933D03*
D19*
X90409790Y-106661934D03*
X90809789Y-106661934D03*
X91209789Y-106661934D03*
X91609788Y-106661934D03*
G04 #@! TD*
D17*
G04 #@! TO.C,U54*
X91759790Y-114050823D03*
D18*
X91809790Y-113650824D03*
X91809790Y-113250824D03*
X91809790Y-112850825D03*
D19*
X91609788Y-112250824D03*
X91209789Y-112250824D03*
X90809789Y-112250824D03*
X90409790Y-112250824D03*
D18*
X90209788Y-112850825D03*
X90209788Y-113250824D03*
X90209788Y-113650824D03*
X90209788Y-114050823D03*
D19*
X90409790Y-114650824D03*
X90809789Y-114650824D03*
X91209789Y-114650824D03*
X91609788Y-114650824D03*
G04 #@! TD*
D21*
G04 #@! TO.C,C12*
X11050000Y-105825000D03*
X11050000Y-104275000D03*
G04 #@! TD*
D11*
G04 #@! TO.C,C90*
X42855000Y-106805000D03*
X43545000Y-106805000D03*
G04 #@! TD*
G04 #@! TO.C,C29*
X68060000Y-134750000D03*
X68750000Y-134750000D03*
G04 #@! TD*
D12*
G04 #@! TO.C,C58*
X86452289Y-107546934D03*
X86452289Y-108236934D03*
G04 #@! TD*
D11*
G04 #@! TO.C,C65*
X92937289Y-126786934D03*
X93627289Y-126786934D03*
G04 #@! TD*
D26*
G04 #@! TO.C,C5*
X14080000Y-125634000D03*
X12530000Y-125634000D03*
G04 #@! TD*
D27*
G04 #@! TO.C,U2*
X5362999Y-105327000D03*
D28*
X6174999Y-105325000D03*
X6674998Y-105325000D03*
X6674998Y-102525000D03*
X6174999Y-102525000D03*
D27*
X5362999Y-102523000D03*
D29*
X5274999Y-103425000D03*
D30*
X5634999Y-103925000D03*
D29*
X5274999Y-104425000D03*
G04 #@! TD*
D31*
G04 #@! TO.C,J15*
X49507500Y-101250000D03*
X49507500Y-190250000D03*
D32*
X45907500Y-187250000D03*
X45907500Y-186250000D03*
X45907500Y-185250000D03*
X45907500Y-184250000D03*
X45907500Y-183250000D03*
X45907500Y-182250000D03*
X45907500Y-181250000D03*
X45907500Y-180250000D03*
X45907500Y-179250000D03*
X45907500Y-178250000D03*
X45907500Y-177250000D03*
X45907500Y-174250000D03*
X45907500Y-173250000D03*
X45907500Y-172250000D03*
X45907500Y-171250000D03*
X45907500Y-170250000D03*
X45907500Y-169250000D03*
X45907500Y-168250000D03*
X45907500Y-167250000D03*
X45907500Y-166250000D03*
X45907500Y-165250000D03*
X45907500Y-164250000D03*
X45907500Y-163250000D03*
X45907500Y-162250000D03*
X45907500Y-161250000D03*
X45907500Y-160250000D03*
X45907500Y-159250000D03*
X45907500Y-158250000D03*
X45907500Y-157250000D03*
X45907500Y-156250000D03*
X45907500Y-155250000D03*
X45907500Y-154250000D03*
X45907500Y-153250000D03*
X45907500Y-152250000D03*
X45907500Y-151250000D03*
X45907500Y-150250000D03*
X45907500Y-149250000D03*
X45907500Y-148250000D03*
X45907500Y-147250000D03*
X45907500Y-146250000D03*
X45907500Y-145250000D03*
X45907500Y-144250000D03*
X45907500Y-143250000D03*
X45907500Y-142250000D03*
X45907500Y-141250000D03*
X45907500Y-140250000D03*
X45907500Y-139250000D03*
X45907500Y-138250000D03*
X45907500Y-137250000D03*
X45907500Y-136250000D03*
X45907500Y-135250000D03*
X45907500Y-134250000D03*
X45907500Y-133250000D03*
X45907500Y-132250000D03*
X45907500Y-131250000D03*
X45907500Y-130250000D03*
X45907500Y-129250000D03*
X45907500Y-128250000D03*
X45907500Y-127250000D03*
X45907500Y-126250000D03*
X45907500Y-125250000D03*
X45907500Y-124250000D03*
X45907500Y-123250000D03*
X45907500Y-122250000D03*
X45907500Y-121250000D03*
X45907500Y-120250000D03*
X45907500Y-119250000D03*
X45907500Y-118250000D03*
X45907500Y-117250000D03*
X45907500Y-116250000D03*
X45907500Y-115250000D03*
X45907500Y-114250000D03*
X45907500Y-113250000D03*
X45907500Y-112250000D03*
X45907500Y-111250000D03*
X45907500Y-110250000D03*
X45907500Y-109250000D03*
X45907500Y-108250000D03*
X45907500Y-107250000D03*
X45907500Y-106250000D03*
X45907500Y-105250000D03*
X45907500Y-104250000D03*
X53107500Y-187250000D03*
X53107500Y-186250000D03*
X53107500Y-185250000D03*
X53107500Y-184250000D03*
X53107500Y-183250000D03*
X53107500Y-182250000D03*
X53107500Y-181250000D03*
X53107500Y-180250000D03*
X53107500Y-179250000D03*
X53107500Y-178250000D03*
X53107500Y-177250000D03*
X53107500Y-174250000D03*
X53107500Y-173250000D03*
X53107500Y-172250000D03*
X53107500Y-171250000D03*
X53107500Y-170250000D03*
X53107500Y-169250000D03*
X53107500Y-168250000D03*
X53107500Y-167250000D03*
X53107500Y-166250000D03*
X53107500Y-165250000D03*
X53107500Y-164250000D03*
X53107500Y-163250000D03*
X53107500Y-162250000D03*
X53107500Y-161250000D03*
X53107500Y-160250000D03*
X53107500Y-159250000D03*
X53107500Y-158250000D03*
X53107500Y-157250000D03*
X53107500Y-156250000D03*
X53107500Y-155250000D03*
X53107500Y-154250000D03*
X53107500Y-153250000D03*
X53107500Y-152250000D03*
X53107500Y-151250000D03*
X53107500Y-150250000D03*
X53107500Y-149250000D03*
X53107500Y-148250000D03*
X53107500Y-147250000D03*
X53107500Y-146250000D03*
X53107500Y-145250000D03*
X53107500Y-144250000D03*
X53107500Y-143250000D03*
X53107500Y-142250000D03*
X53107500Y-141250000D03*
X53107500Y-140250000D03*
X53107500Y-139250000D03*
X53107500Y-138250000D03*
X53107500Y-137250000D03*
X53107500Y-136250000D03*
X53107500Y-135250000D03*
X53107500Y-134250000D03*
X53107500Y-133250000D03*
X53107500Y-132250000D03*
X53107500Y-131250000D03*
X53107500Y-130250000D03*
X53107500Y-129250000D03*
X53107500Y-128250000D03*
X53107500Y-127250000D03*
X53107500Y-126250000D03*
X53107500Y-125250000D03*
X53107500Y-124250000D03*
X53107500Y-123250000D03*
X53107500Y-122250000D03*
X53107500Y-121250000D03*
X53107500Y-120250000D03*
X53107500Y-119250000D03*
X53107500Y-118250000D03*
X53107500Y-117250000D03*
X53107500Y-116250000D03*
X53107500Y-115250000D03*
X53107500Y-114250000D03*
X53107500Y-113250000D03*
X53107500Y-112250000D03*
X53107500Y-111250000D03*
X53107500Y-110250000D03*
X53107500Y-109250000D03*
X53107500Y-108250000D03*
X53107500Y-107250000D03*
X53107500Y-106250000D03*
X53107500Y-105250000D03*
X53107500Y-104250000D03*
G04 #@! TD*
D11*
G04 #@! TO.C,C30*
X67935000Y-151675000D03*
X68625000Y-151675000D03*
G04 #@! TD*
D33*
G04 #@! TO.C,IC2*
X92402289Y-148586934D03*
X92402289Y-148086934D03*
X92402289Y-147586934D03*
X92402289Y-147086934D03*
X92402289Y-146586934D03*
X92402289Y-146086934D03*
X92402289Y-145586934D03*
X92402289Y-145086934D03*
X89326289Y-145086934D03*
X89326289Y-145586934D03*
X89326289Y-146086934D03*
X89326289Y-146586934D03*
X89326289Y-147086934D03*
X89326289Y-147586934D03*
X89326289Y-148086934D03*
X89326289Y-148586934D03*
G04 #@! TD*
D11*
G04 #@! TO.C,C82*
X43035000Y-130800000D03*
X43725000Y-130800000D03*
G04 #@! TD*
G04 #@! TO.C,C98*
X92862289Y-150536934D03*
X93552289Y-150536934D03*
G04 #@! TD*
D17*
G04 #@! TO.C,U33*
X91759790Y-180836933D03*
D18*
X91809790Y-180436934D03*
X91809790Y-180036934D03*
X91809790Y-179636935D03*
D19*
X91609788Y-179036934D03*
X91209789Y-179036934D03*
X90809789Y-179036934D03*
X90409790Y-179036934D03*
D18*
X90209788Y-179636935D03*
X90209788Y-180036934D03*
X90209788Y-180436934D03*
X90209788Y-180836933D03*
D19*
X90409790Y-181436934D03*
X90809789Y-181436934D03*
X91209789Y-181436934D03*
X91609788Y-181436934D03*
G04 #@! TD*
D20*
G04 #@! TO.C,U57*
X37975000Y-164600000D03*
X37975000Y-163950000D03*
X37975000Y-163300000D03*
X37975000Y-162650000D03*
X35700000Y-162650000D03*
X35700000Y-163300000D03*
X35700000Y-163950000D03*
X35700000Y-164600000D03*
G04 #@! TD*
D14*
G04 #@! TO.C,U13*
X61870000Y-153100000D03*
X61870000Y-152700000D03*
X61870000Y-152300000D03*
X61870000Y-151900000D03*
D15*
X61210000Y-151240000D03*
X60810000Y-151240000D03*
X60410000Y-151240000D03*
X60010000Y-151240000D03*
D14*
X59350000Y-151900000D03*
X59350000Y-152300000D03*
X59350000Y-152700000D03*
X59350000Y-153100000D03*
D15*
X60010000Y-153760000D03*
X60410000Y-153760000D03*
X60810000Y-153760000D03*
X61210000Y-153760000D03*
D16*
X60610000Y-152500000D03*
G04 #@! TD*
D12*
G04 #@! TO.C,R165*
X418600000Y-208500000D03*
X418600000Y-209190000D03*
G04 #@! TD*
G04 #@! TO.C,C89*
X36450000Y-107560000D03*
X36450000Y-108250000D03*
G04 #@! TD*
D11*
G04 #@! TO.C,C85*
X42935000Y-126800000D03*
X43625000Y-126800000D03*
G04 #@! TD*
D13*
G04 #@! TO.C,R33*
X25700000Y-98300000D03*
X25010000Y-98300000D03*
G04 #@! TD*
D12*
G04 #@! TO.C,R166*
X417875000Y-208500000D03*
X417875000Y-209190000D03*
G04 #@! TD*
D13*
G04 #@! TO.C,R27*
X28550000Y-99100000D03*
X27860000Y-99100000D03*
G04 #@! TD*
D12*
G04 #@! TO.C,C44*
X86252289Y-124296934D03*
X86252289Y-124986934D03*
G04 #@! TD*
D11*
G04 #@! TO.C,C97*
X67935000Y-162075000D03*
X68625000Y-162075000D03*
G04 #@! TD*
D17*
G04 #@! TO.C,U21*
X66757501Y-122052779D03*
D18*
X66807501Y-121652780D03*
X66807501Y-121252780D03*
X66807501Y-120852781D03*
D19*
X66607499Y-120252780D03*
X66207500Y-120252780D03*
X65807500Y-120252780D03*
X65407501Y-120252780D03*
D18*
X65207499Y-120852781D03*
X65207499Y-121252780D03*
X65207499Y-121652780D03*
X65207499Y-122052779D03*
D19*
X65407501Y-122652780D03*
X65807500Y-122652780D03*
X66207500Y-122652780D03*
X66607499Y-122652780D03*
G04 #@! TD*
D17*
G04 #@! TO.C,U12*
X66757501Y-164349999D03*
D18*
X66807501Y-163950000D03*
X66807501Y-163550000D03*
X66807501Y-163150001D03*
D19*
X66607499Y-162550000D03*
X66207500Y-162550000D03*
X65807500Y-162550000D03*
X65407501Y-162550000D03*
D18*
X65207499Y-163150001D03*
X65207499Y-163550000D03*
X65207499Y-163950000D03*
X65207499Y-164349999D03*
D19*
X65407501Y-164950000D03*
X65807500Y-164950000D03*
X66207500Y-164950000D03*
X66607499Y-164950000D03*
G04 #@! TD*
D11*
G04 #@! TO.C,C95*
X103787289Y-192286934D03*
X104477289Y-192286934D03*
G04 #@! TD*
G04 #@! TO.C,C64*
X92887289Y-153086934D03*
X93577289Y-153086934D03*
G04 #@! TD*
D33*
G04 #@! TO.C,IC3*
X42400000Y-148600000D03*
X42400000Y-148100000D03*
X42400000Y-147600000D03*
X42400000Y-147100000D03*
X42400000Y-146600000D03*
X42400000Y-146100000D03*
X42400000Y-145600000D03*
X42400000Y-145100000D03*
X39324000Y-145100000D03*
X39324000Y-145600000D03*
X39324000Y-146100000D03*
X39324000Y-146600000D03*
X39324000Y-147100000D03*
X39324000Y-147600000D03*
X39324000Y-148100000D03*
X39324000Y-148600000D03*
G04 #@! TD*
D11*
G04 #@! TO.C,C54*
X93062289Y-134736934D03*
X93752289Y-134736934D03*
G04 #@! TD*
D34*
G04 #@! TO.C,C6*
X4575000Y-100300000D03*
X6125000Y-100300000D03*
G04 #@! TD*
D14*
G04 #@! TO.C,U49*
X86872289Y-130736934D03*
X86872289Y-130336934D03*
X86872289Y-129936934D03*
X86872289Y-129536934D03*
D15*
X86212289Y-128876934D03*
X85812289Y-128876934D03*
X85412289Y-128876934D03*
X85012289Y-128876934D03*
D14*
X84352289Y-129536934D03*
X84352289Y-129936934D03*
X84352289Y-130336934D03*
X84352289Y-130736934D03*
D15*
X85012289Y-131396934D03*
X85412289Y-131396934D03*
X85812289Y-131396934D03*
X86212289Y-131396934D03*
D16*
X85612289Y-130136934D03*
G04 #@! TD*
D11*
G04 #@! TO.C,C59*
X92937289Y-162061934D03*
X93627289Y-162061934D03*
G04 #@! TD*
D17*
G04 #@! TO.C,U28*
X66757501Y-110069444D03*
D18*
X66807501Y-109669445D03*
X66807501Y-109269445D03*
X66807501Y-108869446D03*
D19*
X66607499Y-108269445D03*
X66207500Y-108269445D03*
X65807500Y-108269445D03*
X65407501Y-108269445D03*
D18*
X65207499Y-108869446D03*
X65207499Y-109269445D03*
X65207499Y-109669445D03*
X65207499Y-110069444D03*
D19*
X65407501Y-110669445D03*
X65807500Y-110669445D03*
X66207500Y-110669445D03*
X66607499Y-110669445D03*
G04 #@! TD*
D35*
G04 #@! TO.C,C11*
X4252400Y-119855200D03*
X4252400Y-121405200D03*
G04 #@! TD*
D17*
G04 #@! TO.C,U62*
X41757501Y-164349999D03*
D18*
X41807501Y-163950000D03*
X41807501Y-163550000D03*
X41807501Y-163150001D03*
D19*
X41607499Y-162550000D03*
X41207500Y-162550000D03*
X40807500Y-162550000D03*
X40407501Y-162550000D03*
D18*
X40207499Y-163150001D03*
X40207499Y-163550000D03*
X40207499Y-163950000D03*
X40207499Y-164349999D03*
D19*
X40407501Y-164950000D03*
X40807500Y-164950000D03*
X41207500Y-164950000D03*
X41607499Y-164950000D03*
G04 #@! TD*
D11*
G04 #@! TO.C,C72*
X42180000Y-182900000D03*
X42870000Y-182900000D03*
G04 #@! TD*
D13*
G04 #@! TO.C,R22*
X61780000Y-147550000D03*
X61090000Y-147550000D03*
G04 #@! TD*
D27*
G04 #@! TO.C,U1*
X14298499Y-120356998D03*
D28*
X13486499Y-120358998D03*
X12986500Y-120358998D03*
X12986500Y-123158998D03*
X13486499Y-123158998D03*
D27*
X14298499Y-123160998D03*
D29*
X14386499Y-122258998D03*
D30*
X14026499Y-121758998D03*
D29*
X14386499Y-121258998D03*
G04 #@! TD*
D17*
G04 #@! TO.C,U18*
X66757501Y-142025003D03*
D18*
X66807501Y-141625004D03*
X66807501Y-141225004D03*
X66807501Y-140825005D03*
D19*
X66607499Y-140225004D03*
X66207500Y-140225004D03*
X65807500Y-140225004D03*
X65407501Y-140225004D03*
D18*
X65207499Y-140825005D03*
X65207499Y-141225004D03*
X65207499Y-141625004D03*
X65207499Y-142025003D03*
D19*
X65407501Y-142625004D03*
X65807500Y-142625004D03*
X66207500Y-142625004D03*
X66607499Y-142625004D03*
G04 #@! TD*
D20*
G04 #@! TO.C,U31*
X87977289Y-170036934D03*
X87977289Y-169386934D03*
X87977289Y-168736934D03*
X87977289Y-168086934D03*
X85702289Y-168086934D03*
X85702289Y-168736934D03*
X85702289Y-169386934D03*
X85702289Y-170036934D03*
G04 #@! TD*
D13*
G04 #@! TO.C,C35*
X63290000Y-160525000D03*
X62600000Y-160525000D03*
G04 #@! TD*
G04 #@! TO.C,R117*
X28550000Y-87100000D03*
X27860000Y-87100000D03*
G04 #@! TD*
G04 #@! TO.C,R81*
X28550000Y-91900000D03*
X27860000Y-91900000D03*
G04 #@! TD*
D35*
G04 #@! TO.C,C9*
X6386000Y-119855200D03*
X6386000Y-121405200D03*
G04 #@! TD*
D11*
G04 #@! TO.C,R147*
X427825000Y-198200000D03*
X428515000Y-198200000D03*
G04 #@! TD*
G04 #@! TO.C,C40*
X67900000Y-118800000D03*
X68590000Y-118800000D03*
G04 #@! TD*
D13*
G04 #@! TO.C,R30*
X21925000Y-98700000D03*
X21235000Y-98700000D03*
G04 #@! TD*
D14*
G04 #@! TO.C,U24*
X61870000Y-130750000D03*
X61870000Y-130350000D03*
X61870000Y-129950000D03*
X61870000Y-129550000D03*
D15*
X61210000Y-128890000D03*
X60810000Y-128890000D03*
X60410000Y-128890000D03*
X60010000Y-128890000D03*
D14*
X59350000Y-129550000D03*
X59350000Y-129950000D03*
X59350000Y-130350000D03*
X59350000Y-130750000D03*
D15*
X60010000Y-131410000D03*
X60410000Y-131410000D03*
X60810000Y-131410000D03*
X61210000Y-131410000D03*
D16*
X60610000Y-130150000D03*
G04 #@! TD*
D17*
G04 #@! TO.C,U61*
X41757501Y-169399999D03*
D18*
X41807501Y-169000000D03*
X41807501Y-168600000D03*
X41807501Y-168200001D03*
D19*
X41607499Y-167600000D03*
X41207500Y-167600000D03*
X40807500Y-167600000D03*
X40407501Y-167600000D03*
D18*
X40207499Y-168200001D03*
X40207499Y-168600000D03*
X40207499Y-169000000D03*
X40207499Y-169399999D03*
D19*
X40407501Y-170000000D03*
X40807500Y-170000000D03*
X41207500Y-170000000D03*
X41607499Y-170000000D03*
G04 #@! TD*
D12*
G04 #@! TO.C,R159*
X421537500Y-208500000D03*
X421537500Y-209190000D03*
G04 #@! TD*
D11*
G04 #@! TO.C,C50*
X85177289Y-171836934D03*
X85867289Y-171836934D03*
G04 #@! TD*
D17*
G04 #@! TO.C,U11*
X66757501Y-169399999D03*
D18*
X66807501Y-169000000D03*
X66807501Y-168600000D03*
X66807501Y-168200001D03*
D19*
X66607499Y-167600000D03*
X66207500Y-167600000D03*
X65807500Y-167600000D03*
X65407501Y-167600000D03*
D18*
X65207499Y-168200001D03*
X65207499Y-168600000D03*
X65207499Y-169000000D03*
X65207499Y-169399999D03*
D19*
X65407501Y-170000000D03*
X65807500Y-170000000D03*
X66207500Y-170000000D03*
X66607499Y-170000000D03*
G04 #@! TD*
D17*
G04 #@! TO.C,U8*
X66757501Y-180849999D03*
D18*
X66807501Y-180450000D03*
X66807501Y-180050000D03*
X66807501Y-179650001D03*
D19*
X66607499Y-179050000D03*
X66207500Y-179050000D03*
X65807500Y-179050000D03*
X65407501Y-179050000D03*
D18*
X65207499Y-179650001D03*
X65207499Y-180050000D03*
X65207499Y-180450000D03*
X65207499Y-180849999D03*
D19*
X65407501Y-181450000D03*
X65807500Y-181450000D03*
X66207500Y-181450000D03*
X66607499Y-181450000D03*
G04 #@! TD*
D12*
G04 #@! TO.C,C86*
X36300000Y-140960000D03*
X36300000Y-141650000D03*
G04 #@! TD*
D11*
G04 #@! TO.C,C84*
X42960000Y-122850000D03*
X43650000Y-122850000D03*
G04 #@! TD*
D13*
G04 #@! TO.C,R75*
X21925000Y-92700000D03*
X21235000Y-92700000D03*
G04 #@! TD*
D17*
G04 #@! TO.C,U69*
X41757501Y-130041668D03*
D18*
X41807501Y-129641669D03*
X41807501Y-129241669D03*
X41807501Y-128841670D03*
D19*
X41607499Y-128241669D03*
X41207500Y-128241669D03*
X40807500Y-128241669D03*
X40407501Y-128241669D03*
D18*
X40207499Y-128841670D03*
X40207499Y-129241669D03*
X40207499Y-129641669D03*
X40207499Y-130041668D03*
D19*
X40407501Y-130641669D03*
X40807500Y-130641669D03*
X41207500Y-130641669D03*
X41607499Y-130641669D03*
G04 #@! TD*
D13*
G04 #@! TO.C,R90*
X28550000Y-90700000D03*
X27860000Y-90700000D03*
G04 #@! TD*
D11*
G04 #@! TO.C,C22*
X67935000Y-165025000D03*
X68625000Y-165025000D03*
G04 #@! TD*
D13*
G04 #@! TO.C,R114*
X25700000Y-87500000D03*
X25010000Y-87500000D03*
G04 #@! TD*
G04 #@! TO.C,R93*
X21925000Y-90300000D03*
X21235000Y-90300000D03*
G04 #@! TD*
D17*
G04 #@! TO.C,U70*
X41757501Y-134036113D03*
D18*
X41807501Y-133636114D03*
X41807501Y-133236114D03*
X41807501Y-132836115D03*
D19*
X41607499Y-132236114D03*
X41207500Y-132236114D03*
X40807500Y-132236114D03*
X40407501Y-132236114D03*
D18*
X40207499Y-132836115D03*
X40207499Y-133236114D03*
X40207499Y-133636114D03*
X40207499Y-134036113D03*
D19*
X40407501Y-134636114D03*
X40807500Y-134636114D03*
X41207500Y-134636114D03*
X41607499Y-134636114D03*
G04 #@! TD*
D13*
G04 #@! TO.C,R120*
X21925000Y-86700000D03*
X21235000Y-86700000D03*
G04 #@! TD*
D36*
G04 #@! TO.C,R3*
X16723800Y-124552100D03*
X16723800Y-122902100D03*
G04 #@! TD*
D12*
G04 #@! TO.C,C103*
X61450000Y-107560000D03*
X61450000Y-108250000D03*
G04 #@! TD*
D17*
G04 #@! TO.C,U35*
X91759790Y-152336933D03*
D18*
X91809790Y-151936934D03*
X91809790Y-151536934D03*
X91809790Y-151136935D03*
D19*
X91609788Y-150536934D03*
X91209789Y-150536934D03*
X90809789Y-150536934D03*
X90409790Y-150536934D03*
D18*
X90209788Y-151136935D03*
X90209788Y-151536934D03*
X90209788Y-151936934D03*
X90209788Y-152336933D03*
D19*
X90409790Y-152936934D03*
X90809789Y-152936934D03*
X91209789Y-152936934D03*
X91609788Y-152936934D03*
G04 #@! TD*
D17*
G04 #@! TO.C,U68*
X41757501Y-142025003D03*
D18*
X41807501Y-141625004D03*
X41807501Y-141225004D03*
X41807501Y-140825005D03*
D19*
X41607499Y-140225004D03*
X41207500Y-140225004D03*
X40807500Y-140225004D03*
X40407501Y-140225004D03*
D18*
X40207499Y-140825005D03*
X40207499Y-141225004D03*
X40207499Y-141625004D03*
X40207499Y-142025003D03*
D19*
X40407501Y-142625004D03*
X40807500Y-142625004D03*
X41207500Y-142625004D03*
X41607499Y-142625004D03*
G04 #@! TD*
D13*
G04 #@! TO.C,R108*
X28550000Y-88300000D03*
X27860000Y-88300000D03*
G04 #@! TD*
D17*
G04 #@! TO.C,U43*
X91759790Y-142011937D03*
D18*
X91809790Y-141611938D03*
X91809790Y-141211938D03*
X91809790Y-140811939D03*
D19*
X91609788Y-140211938D03*
X91209789Y-140211938D03*
X90809789Y-140211938D03*
X90409790Y-140211938D03*
D18*
X90209788Y-140811939D03*
X90209788Y-141211938D03*
X90209788Y-141611938D03*
X90209788Y-142011937D03*
D19*
X90409790Y-142611938D03*
X90809789Y-142611938D03*
X91209789Y-142611938D03*
X91609788Y-142611938D03*
G04 #@! TD*
D12*
G04 #@! TO.C,C88*
X36250000Y-124310000D03*
X36250000Y-125000000D03*
G04 #@! TD*
D17*
G04 #@! TO.C,U78*
X41757501Y-110069444D03*
D18*
X41807501Y-109669445D03*
X41807501Y-109269445D03*
X41807501Y-108869446D03*
D19*
X41607499Y-108269445D03*
X41207500Y-108269445D03*
X40807500Y-108269445D03*
X40407501Y-108269445D03*
D18*
X40207499Y-108869446D03*
X40207499Y-109269445D03*
X40207499Y-109669445D03*
X40207499Y-110069444D03*
D19*
X40407501Y-110669445D03*
X40807500Y-110669445D03*
X41207500Y-110669445D03*
X41607499Y-110669445D03*
G04 #@! TD*
D11*
G04 #@! TO.C,C27*
X68035000Y-130800000D03*
X68725000Y-130800000D03*
G04 #@! TD*
D13*
G04 #@! TO.C,R16*
X61772500Y-145150000D03*
X61082500Y-145150000D03*
G04 #@! TD*
G04 #@! TO.C,R96*
X25700000Y-89900000D03*
X25010000Y-89900000D03*
G04 #@! TD*
D11*
G04 #@! TO.C,C93*
X42900000Y-118800000D03*
X43590000Y-118800000D03*
G04 #@! TD*
G04 #@! TO.C,R149*
X427825000Y-199850000D03*
X428515000Y-199850000D03*
G04 #@! TD*
G04 #@! TO.C,C71*
X37575000Y-176400000D03*
X38265000Y-176400000D03*
G04 #@! TD*
D13*
G04 #@! TO.C,R141*
X25700000Y-83900000D03*
X25010000Y-83900000D03*
G04 #@! TD*
D17*
G04 #@! TO.C,U53*
X91759790Y-110056378D03*
D18*
X91809790Y-109656379D03*
X91809790Y-109256379D03*
X91809790Y-108856380D03*
D19*
X91609788Y-108256379D03*
X91209789Y-108256379D03*
X90809789Y-108256379D03*
X90409790Y-108256379D03*
D18*
X90209788Y-108856380D03*
X90209788Y-109256379D03*
X90209788Y-109656379D03*
X90209788Y-110056378D03*
D19*
X90409790Y-110656379D03*
X90809789Y-110656379D03*
X91209789Y-110656379D03*
X91609788Y-110656379D03*
G04 #@! TD*
D11*
G04 #@! TO.C,C38*
X67935000Y-126800000D03*
X68625000Y-126800000D03*
G04 #@! TD*
D13*
G04 #@! TO.C,R57*
X21925000Y-95100000D03*
X21235000Y-95100000D03*
G04 #@! TD*
D14*
G04 #@! TO.C,U66*
X36870000Y-114250000D03*
X36870000Y-113850000D03*
X36870000Y-113450000D03*
X36870000Y-113050000D03*
D15*
X36210000Y-112390000D03*
X35810000Y-112390000D03*
X35410000Y-112390000D03*
X35010000Y-112390000D03*
D14*
X34350000Y-113050000D03*
X34350000Y-113450000D03*
X34350000Y-113850000D03*
X34350000Y-114250000D03*
D15*
X35010000Y-114910000D03*
X35410000Y-114910000D03*
X35810000Y-114910000D03*
X36210000Y-114910000D03*
D16*
X35610000Y-113650000D03*
G04 #@! TD*
D13*
G04 #@! TO.C,R144*
X28550000Y-83500000D03*
X27860000Y-83500000D03*
G04 #@! TD*
D17*
G04 #@! TO.C,U71*
X41757501Y-122052779D03*
D18*
X41807501Y-121652780D03*
X41807501Y-121252780D03*
X41807501Y-120852781D03*
D19*
X41607499Y-120252780D03*
X41207500Y-120252780D03*
X40807500Y-120252780D03*
X40407501Y-120252780D03*
D18*
X40207499Y-120852781D03*
X40207499Y-121252780D03*
X40207499Y-121652780D03*
X40207499Y-122052779D03*
D19*
X40407501Y-122652780D03*
X40807500Y-122652780D03*
X41207500Y-122652780D03*
X41607499Y-122652780D03*
G04 #@! TD*
D13*
G04 #@! TO.C,R135*
X28550000Y-84700000D03*
X27860000Y-84700000D03*
G04 #@! TD*
G04 #@! TO.C,R123*
X25700000Y-86300000D03*
X25010000Y-86300000D03*
G04 #@! TD*
D11*
G04 #@! TO.C,C46*
X92837289Y-110736934D03*
X93527289Y-110736934D03*
G04 #@! TD*
G04 #@! TO.C,C91*
X42835000Y-110750000D03*
X43525000Y-110750000D03*
G04 #@! TD*
D33*
G04 #@! TO.C,IC1*
X67400000Y-148600000D03*
X67400000Y-148100000D03*
X67400000Y-147600000D03*
X67400000Y-147100000D03*
X67400000Y-146600000D03*
X67400000Y-146100000D03*
X67400000Y-145600000D03*
X67400000Y-145100000D03*
X64324000Y-145100000D03*
X64324000Y-145600000D03*
X64324000Y-146100000D03*
X64324000Y-146600000D03*
X64324000Y-147100000D03*
X64324000Y-147600000D03*
X64324000Y-148100000D03*
X64324000Y-148600000D03*
G04 #@! TD*
D11*
G04 #@! TO.C,C45*
X92912289Y-142786934D03*
X93602289Y-142786934D03*
G04 #@! TD*
D14*
G04 #@! TO.C,U75*
X36870000Y-122500000D03*
X36870000Y-122100000D03*
X36870000Y-121700000D03*
X36870000Y-121300000D03*
D15*
X36210000Y-120640000D03*
X35810000Y-120640000D03*
X35410000Y-120640000D03*
X35010000Y-120640000D03*
D14*
X34350000Y-121300000D03*
X34350000Y-121700000D03*
X34350000Y-122100000D03*
X34350000Y-122500000D03*
D15*
X35010000Y-123160000D03*
X35410000Y-123160000D03*
X35810000Y-123160000D03*
X36210000Y-123160000D03*
D16*
X35610000Y-121900000D03*
G04 #@! TD*
D11*
G04 #@! TO.C,C39*
X62635000Y-154225000D03*
X63325000Y-154225000D03*
G04 #@! TD*
D17*
G04 #@! TO.C,U58*
X41757501Y-180849999D03*
D18*
X41807501Y-180450000D03*
X41807501Y-180050000D03*
X41807501Y-179650001D03*
D19*
X41607499Y-179050000D03*
X41207500Y-179050000D03*
X40807500Y-179050000D03*
X40407501Y-179050000D03*
D18*
X40207499Y-179650001D03*
X40207499Y-180050000D03*
X40207499Y-180450000D03*
X40207499Y-180849999D03*
D19*
X40407501Y-181450000D03*
X40807500Y-181450000D03*
X41207500Y-181450000D03*
X41607499Y-181450000D03*
G04 #@! TD*
D37*
G04 #@! TO.C,R5*
X8670000Y-99037500D03*
X8670000Y-100687500D03*
G04 #@! TD*
D14*
G04 #@! TO.C,U64*
X36870000Y-175800000D03*
X36870000Y-175400000D03*
X36870000Y-175000000D03*
X36870000Y-174600000D03*
D15*
X36210000Y-173940000D03*
X35810000Y-173940000D03*
X35410000Y-173940000D03*
X35010000Y-173940000D03*
D14*
X34350000Y-174600000D03*
X34350000Y-175000000D03*
X34350000Y-175400000D03*
X34350000Y-175800000D03*
D15*
X35010000Y-176460000D03*
X35410000Y-176460000D03*
X35810000Y-176460000D03*
X36210000Y-176460000D03*
D16*
X35610000Y-175200000D03*
G04 #@! TD*
D11*
G04 #@! TO.C,C13*
X92565000Y-191025000D03*
X93255000Y-191025000D03*
G04 #@! TD*
G04 #@! TO.C,C81*
X42910000Y-142800000D03*
X43600000Y-142800000D03*
G04 #@! TD*
D17*
G04 #@! TO.C,U46*
X91759790Y-122039713D03*
D18*
X91809790Y-121639714D03*
X91809790Y-121239714D03*
X91809790Y-120839715D03*
D19*
X91609788Y-120239714D03*
X91209789Y-120239714D03*
X90809789Y-120239714D03*
X90409790Y-120239714D03*
D18*
X90209788Y-120839715D03*
X90209788Y-121239714D03*
X90209788Y-121639714D03*
X90209788Y-122039713D03*
D19*
X90409790Y-122639714D03*
X90809789Y-122639714D03*
X91209789Y-122639714D03*
X91609788Y-122639714D03*
G04 #@! TD*
D13*
G04 #@! TO.C,R23*
X86782289Y-147536934D03*
X86092289Y-147536934D03*
G04 #@! TD*
D31*
G04 #@! TO.C,J4*
X74507500Y-101250000D03*
X74507500Y-190250000D03*
D32*
X70907500Y-187250000D03*
X70907500Y-186250000D03*
X70907500Y-185250000D03*
X70907500Y-184250000D03*
X70907500Y-183250000D03*
X70907500Y-182250000D03*
X70907500Y-181250000D03*
X70907500Y-180250000D03*
X70907500Y-179250000D03*
X70907500Y-178250000D03*
X70907500Y-177250000D03*
X70907500Y-174250000D03*
X70907500Y-173250000D03*
X70907500Y-172250000D03*
X70907500Y-171250000D03*
X70907500Y-170250000D03*
X70907500Y-169250000D03*
X70907500Y-168250000D03*
X70907500Y-167250000D03*
X70907500Y-166250000D03*
X70907500Y-165250000D03*
X70907500Y-164250000D03*
X70907500Y-163250000D03*
X70907500Y-162250000D03*
X70907500Y-161250000D03*
X70907500Y-160250000D03*
X70907500Y-159250000D03*
X70907500Y-158250000D03*
X70907500Y-157250000D03*
X70907500Y-156250000D03*
X70907500Y-155250000D03*
X70907500Y-154250000D03*
X70907500Y-153250000D03*
X70907500Y-152250000D03*
X70907500Y-151250000D03*
X70907500Y-150250000D03*
X70907500Y-149250000D03*
X70907500Y-148250000D03*
X70907500Y-147250000D03*
X70907500Y-146250000D03*
X70907500Y-145250000D03*
X70907500Y-144250000D03*
X70907500Y-143250000D03*
X70907500Y-142250000D03*
X70907500Y-141250000D03*
X70907500Y-140250000D03*
X70907500Y-139250000D03*
X70907500Y-138250000D03*
X70907500Y-137250000D03*
X70907500Y-136250000D03*
X70907500Y-135250000D03*
X70907500Y-134250000D03*
X70907500Y-133250000D03*
X70907500Y-132250000D03*
X70907500Y-131250000D03*
X70907500Y-130250000D03*
X70907500Y-129250000D03*
X70907500Y-128250000D03*
X70907500Y-127250000D03*
X70907500Y-126250000D03*
X70907500Y-125250000D03*
X70907500Y-124250000D03*
X70907500Y-123250000D03*
X70907500Y-122250000D03*
X70907500Y-121250000D03*
X70907500Y-120250000D03*
X70907500Y-119250000D03*
X70907500Y-118250000D03*
X70907500Y-117250000D03*
X70907500Y-116250000D03*
X70907500Y-115250000D03*
X70907500Y-114250000D03*
X70907500Y-113250000D03*
X70907500Y-112250000D03*
X70907500Y-111250000D03*
X70907500Y-110250000D03*
X70907500Y-109250000D03*
X70907500Y-108250000D03*
X70907500Y-107250000D03*
X70907500Y-106250000D03*
X70907500Y-105250000D03*
X70907500Y-104250000D03*
X78107500Y-187250000D03*
X78107500Y-186250000D03*
X78107500Y-185250000D03*
X78107500Y-184250000D03*
X78107500Y-183250000D03*
X78107500Y-182250000D03*
X78107500Y-181250000D03*
X78107500Y-180250000D03*
X78107500Y-179250000D03*
X78107500Y-178250000D03*
X78107500Y-177250000D03*
X78107500Y-174250000D03*
X78107500Y-173250000D03*
X78107500Y-172250000D03*
X78107500Y-171250000D03*
X78107500Y-170250000D03*
X78107500Y-169250000D03*
X78107500Y-168250000D03*
X78107500Y-167250000D03*
X78107500Y-166250000D03*
X78107500Y-165250000D03*
X78107500Y-164250000D03*
X78107500Y-163250000D03*
X78107500Y-162250000D03*
X78107500Y-161250000D03*
X78107500Y-160250000D03*
X78107500Y-159250000D03*
X78107500Y-158250000D03*
X78107500Y-157250000D03*
X78107500Y-156250000D03*
X78107500Y-155250000D03*
X78107500Y-154250000D03*
X78107500Y-153250000D03*
X78107500Y-152250000D03*
X78107500Y-151250000D03*
X78107500Y-150250000D03*
X78107500Y-149250000D03*
X78107500Y-148250000D03*
X78107500Y-147250000D03*
X78107500Y-146250000D03*
X78107500Y-145250000D03*
X78107500Y-144250000D03*
X78107500Y-143250000D03*
X78107500Y-142250000D03*
X78107500Y-141250000D03*
X78107500Y-140250000D03*
X78107500Y-139250000D03*
X78107500Y-138250000D03*
X78107500Y-137250000D03*
X78107500Y-136250000D03*
X78107500Y-135250000D03*
X78107500Y-134250000D03*
X78107500Y-133250000D03*
X78107500Y-132250000D03*
X78107500Y-131250000D03*
X78107500Y-130250000D03*
X78107500Y-129250000D03*
X78107500Y-128250000D03*
X78107500Y-127250000D03*
X78107500Y-126250000D03*
X78107500Y-125250000D03*
X78107500Y-124250000D03*
X78107500Y-123250000D03*
X78107500Y-122250000D03*
X78107500Y-121250000D03*
X78107500Y-120250000D03*
X78107500Y-119250000D03*
X78107500Y-118250000D03*
X78107500Y-117250000D03*
X78107500Y-116250000D03*
X78107500Y-115250000D03*
X78107500Y-114250000D03*
X78107500Y-113250000D03*
X78107500Y-112250000D03*
X78107500Y-111250000D03*
X78107500Y-110250000D03*
X78107500Y-109250000D03*
X78107500Y-108250000D03*
X78107500Y-107250000D03*
X78107500Y-106250000D03*
X78107500Y-105250000D03*
X78107500Y-104250000D03*
G04 #@! TD*
D11*
G04 #@! TO.C,C25*
X62575000Y-176400000D03*
X63265000Y-176400000D03*
G04 #@! TD*
D13*
G04 #@! TO.C,R12*
X36765000Y-146750000D03*
X36075000Y-146750000D03*
G04 #@! TD*
D12*
G04 #@! TO.C,C24*
X61250000Y-124310000D03*
X61250000Y-125000000D03*
G04 #@! TD*
D13*
G04 #@! TO.C,R20*
X86752289Y-144336934D03*
X86062289Y-144336934D03*
G04 #@! TD*
D11*
G04 #@! TO.C,C26*
X67910000Y-142800000D03*
X68600000Y-142800000D03*
G04 #@! TD*
D12*
G04 #@! TO.C,R162*
X419325000Y-208500000D03*
X419325000Y-209190000D03*
G04 #@! TD*
D11*
G04 #@! TO.C,C92*
X42810000Y-114750000D03*
X43500000Y-114750000D03*
G04 #@! TD*
D14*
G04 #@! TO.C,U48*
X86872289Y-138986934D03*
X86872289Y-138586934D03*
X86872289Y-138186934D03*
X86872289Y-137786934D03*
D15*
X86212289Y-137126934D03*
X85812289Y-137126934D03*
X85412289Y-137126934D03*
X85012289Y-137126934D03*
D14*
X84352289Y-137786934D03*
X84352289Y-138186934D03*
X84352289Y-138586934D03*
X84352289Y-138986934D03*
D15*
X85012289Y-139646934D03*
X85412289Y-139646934D03*
X85812289Y-139646934D03*
X86212289Y-139646934D03*
D16*
X85612289Y-138386934D03*
G04 #@! TD*
D17*
G04 #@! TO.C,U47*
X91759790Y-126034157D03*
D18*
X91809790Y-125634158D03*
X91809790Y-125234158D03*
X91809790Y-124834159D03*
D19*
X91609788Y-124234158D03*
X91209789Y-124234158D03*
X90809789Y-124234158D03*
X90409790Y-124234158D03*
D18*
X90209788Y-124834159D03*
X90209788Y-125234158D03*
X90209788Y-125634158D03*
X90209788Y-126034157D03*
D19*
X90409790Y-126634158D03*
X90809789Y-126634158D03*
X91209789Y-126634158D03*
X91609788Y-126634158D03*
G04 #@! TD*
D11*
G04 #@! TO.C,C32*
X67855000Y-106805000D03*
X68545000Y-106805000D03*
G04 #@! TD*
G04 #@! TO.C,R157*
X420935000Y-204617857D03*
X421625000Y-204617857D03*
G04 #@! TD*
D12*
G04 #@! TO.C,C33*
X61300000Y-115950000D03*
X61300000Y-116640000D03*
G04 #@! TD*
D17*
G04 #@! TO.C,U9*
X66757501Y-160099999D03*
D18*
X66807501Y-159700000D03*
X66807501Y-159300000D03*
X66807501Y-158900001D03*
D19*
X66607499Y-158300000D03*
X66207500Y-158300000D03*
X65807500Y-158300000D03*
X65407501Y-158300000D03*
D18*
X65207499Y-158900001D03*
X65207499Y-159300000D03*
X65207499Y-159700000D03*
X65207499Y-160099999D03*
D19*
X65407501Y-160700000D03*
X65807500Y-160700000D03*
X66207500Y-160700000D03*
X66607499Y-160700000D03*
G04 #@! TD*
D11*
G04 #@! TO.C,C19*
X67835000Y-110750000D03*
X68525000Y-110750000D03*
G04 #@! TD*
G04 #@! TO.C,R145*
X427825000Y-200675000D03*
X428515000Y-200675000D03*
G04 #@! TD*
D17*
G04 #@! TO.C,U19*
X66757501Y-130041668D03*
D18*
X66807501Y-129641669D03*
X66807501Y-129241669D03*
X66807501Y-128841670D03*
D19*
X66607499Y-128241669D03*
X66207500Y-128241669D03*
X65807500Y-128241669D03*
X65407501Y-128241669D03*
D18*
X65207499Y-128841670D03*
X65207499Y-129241669D03*
X65207499Y-129641669D03*
X65207499Y-130041668D03*
D19*
X65407501Y-130641669D03*
X65807500Y-130641669D03*
X66207500Y-130641669D03*
X66607499Y-130641669D03*
G04 #@! TD*
D23*
G04 #@! TO.C,U15*
X78399951Y-194050775D03*
D24*
X77999951Y-193999975D03*
D25*
X77299902Y-194300000D03*
X77299902Y-194699999D03*
X77299902Y-195099998D03*
D24*
X77999951Y-195400023D03*
X78399951Y-195400023D03*
D25*
X79100000Y-195099998D03*
X79100000Y-194699999D03*
X79100000Y-194300000D03*
G04 #@! TD*
D11*
G04 #@! TO.C,C70*
X35175000Y-171850000D03*
X35865000Y-171850000D03*
G04 #@! TD*
D17*
G04 #@! TO.C,U27*
X66757501Y-106074999D03*
D18*
X66807501Y-105675000D03*
X66807501Y-105275000D03*
X66807501Y-104875001D03*
D19*
X66607499Y-104275000D03*
X66207500Y-104275000D03*
X65807500Y-104275000D03*
X65407501Y-104275000D03*
D18*
X65207499Y-104875001D03*
X65207499Y-105275000D03*
X65207499Y-105675000D03*
X65207499Y-106074999D03*
D19*
X65407501Y-106675000D03*
X65807500Y-106675000D03*
X66207500Y-106675000D03*
X66607499Y-106675000D03*
G04 #@! TD*
D17*
G04 #@! TO.C,U17*
X66757501Y-138030558D03*
D18*
X66807501Y-137630559D03*
X66807501Y-137230559D03*
X66807501Y-136830560D03*
D19*
X66607499Y-136230559D03*
X66207500Y-136230559D03*
X65807500Y-136230559D03*
X65407501Y-136230559D03*
D18*
X65207499Y-136830560D03*
X65207499Y-137230559D03*
X65207499Y-137630559D03*
X65207499Y-138030558D03*
D19*
X65407501Y-138630559D03*
X65807500Y-138630559D03*
X66207500Y-138630559D03*
X66607499Y-138630559D03*
G04 #@! TD*
D14*
G04 #@! TO.C,U76*
X36870000Y-106000000D03*
X36870000Y-105600000D03*
X36870000Y-105200000D03*
X36870000Y-104800000D03*
D15*
X36210000Y-104140000D03*
X35810000Y-104140000D03*
X35410000Y-104140000D03*
X35010000Y-104140000D03*
D14*
X34350000Y-104800000D03*
X34350000Y-105200000D03*
X34350000Y-105600000D03*
X34350000Y-106000000D03*
D15*
X35010000Y-106660000D03*
X35410000Y-106660000D03*
X35810000Y-106660000D03*
X36210000Y-106660000D03*
D16*
X35610000Y-105400000D03*
G04 #@! TD*
D13*
G04 #@! TO.C,R10*
X61765000Y-146750000D03*
X61075000Y-146750000D03*
G04 #@! TD*
D14*
G04 #@! TO.C,U50*
X86872289Y-122486934D03*
X86872289Y-122086934D03*
X86872289Y-121686934D03*
X86872289Y-121286934D03*
D15*
X86212289Y-120626934D03*
X85812289Y-120626934D03*
X85412289Y-120626934D03*
X85012289Y-120626934D03*
D14*
X84352289Y-121286934D03*
X84352289Y-121686934D03*
X84352289Y-122086934D03*
X84352289Y-122486934D03*
D15*
X85012289Y-123146934D03*
X85412289Y-123146934D03*
X85812289Y-123146934D03*
X86212289Y-123146934D03*
D16*
X85612289Y-121886934D03*
G04 #@! TD*
D14*
G04 #@! TO.C,U73*
X36870000Y-139000000D03*
X36870000Y-138600000D03*
X36870000Y-138200000D03*
X36870000Y-137800000D03*
D15*
X36210000Y-137140000D03*
X35810000Y-137140000D03*
X35410000Y-137140000D03*
X35010000Y-137140000D03*
D14*
X34350000Y-137800000D03*
X34350000Y-138200000D03*
X34350000Y-138600000D03*
X34350000Y-139000000D03*
D15*
X35010000Y-139660000D03*
X35410000Y-139660000D03*
X35810000Y-139660000D03*
X36210000Y-139660000D03*
D16*
X35610000Y-138400000D03*
G04 #@! TD*
D13*
G04 #@! TO.C,R45*
X28550000Y-96700000D03*
X27860000Y-96700000D03*
G04 #@! TD*
D11*
G04 #@! TO.C,C73*
X42885000Y-153100000D03*
X43575000Y-153100000D03*
G04 #@! TD*
D17*
G04 #@! TO.C,U36*
X91759790Y-169386933D03*
D18*
X91809790Y-168986934D03*
X91809790Y-168586934D03*
X91809790Y-168186935D03*
D19*
X91609788Y-167586934D03*
X91209789Y-167586934D03*
X90809789Y-167586934D03*
X90409790Y-167586934D03*
D18*
X90209788Y-168186935D03*
X90209788Y-168586934D03*
X90209788Y-168986934D03*
X90209788Y-169386933D03*
D19*
X90409790Y-169986934D03*
X90809789Y-169986934D03*
X91209789Y-169986934D03*
X91609788Y-169986934D03*
G04 #@! TD*
D13*
G04 #@! TO.C,R87*
X25700000Y-91100000D03*
X25010000Y-91100000D03*
G04 #@! TD*
D38*
G04 #@! TO.C,J3*
X16976000Y-90442174D03*
X16176000Y-90442174D03*
D39*
X15026000Y-90442174D03*
X14026000Y-90442174D03*
X13526000Y-90442174D03*
X12526000Y-90442174D03*
D38*
X11376000Y-90442174D03*
X10576000Y-90442174D03*
X10576000Y-90442174D03*
X11376000Y-90442174D03*
D39*
X12026000Y-90442174D03*
X13026000Y-90442174D03*
X14526000Y-90442174D03*
X15526000Y-90442174D03*
D38*
X16176000Y-90442174D03*
X16976000Y-90442174D03*
G04 #@! TD*
D13*
G04 #@! TO.C,C105*
X38290000Y-160525000D03*
X37600000Y-160525000D03*
G04 #@! TD*
D11*
G04 #@! TO.C,C62*
X92182289Y-182886934D03*
X92872289Y-182886934D03*
G04 #@! TD*
D13*
G04 #@! TO.C,R99*
X28550000Y-89500000D03*
X27860000Y-89500000D03*
G04 #@! TD*
D11*
G04 #@! TO.C,C28*
X67180000Y-182900000D03*
X67870000Y-182900000D03*
G04 #@! TD*
D17*
G04 #@! TO.C,U79*
X41757501Y-114063889D03*
D18*
X41807501Y-113663890D03*
X41807501Y-113263890D03*
X41807501Y-112863891D03*
D19*
X41607499Y-112263890D03*
X41207500Y-112263890D03*
X40807500Y-112263890D03*
X40407501Y-112263890D03*
D18*
X40207499Y-112863891D03*
X40207499Y-113263890D03*
X40207499Y-113663890D03*
X40207499Y-114063889D03*
D19*
X40407501Y-114663890D03*
X40807500Y-114663890D03*
X41207500Y-114663890D03*
X41607499Y-114663890D03*
G04 #@! TD*
D11*
G04 #@! TO.C,R151*
X420935000Y-200671429D03*
X421625000Y-200671429D03*
G04 #@! TD*
G04 #@! TO.C,C78*
X53785000Y-192300000D03*
X54475000Y-192300000D03*
G04 #@! TD*
D13*
G04 #@! TO.C,R126*
X28550000Y-85900000D03*
X27860000Y-85900000D03*
G04 #@! TD*
D40*
G04 #@! TO.C,R4*
X12375000Y-99050000D03*
X10725000Y-99050000D03*
G04 #@! TD*
D13*
G04 #@! TO.C,R138*
X21925000Y-84300000D03*
X21235000Y-84300000D03*
G04 #@! TD*
D17*
G04 #@! TO.C,U20*
X66757501Y-134036113D03*
D18*
X66807501Y-133636114D03*
X66807501Y-133236114D03*
X66807501Y-132836115D03*
D19*
X66607499Y-132236114D03*
X66207500Y-132236114D03*
X65807500Y-132236114D03*
X65407501Y-132236114D03*
D18*
X65207499Y-132836115D03*
X65207499Y-133236114D03*
X65207499Y-133636114D03*
X65207499Y-134036113D03*
D19*
X65407501Y-134636114D03*
X65807500Y-134636114D03*
X66207500Y-134636114D03*
X66607499Y-134636114D03*
G04 #@! TD*
D20*
G04 #@! TO.C,U7*
X62975000Y-164600000D03*
X62975000Y-163950000D03*
X62975000Y-163300000D03*
X62975000Y-162650000D03*
X60700000Y-162650000D03*
X60700000Y-163300000D03*
X60700000Y-163950000D03*
X60700000Y-164600000D03*
G04 #@! TD*
D31*
G04 #@! TO.C,J11*
X99509789Y-101236934D03*
X99509789Y-190236934D03*
D32*
X95909789Y-187236934D03*
X95909789Y-186236934D03*
X95909789Y-185236934D03*
X95909789Y-184236934D03*
X95909789Y-183236934D03*
X95909789Y-182236934D03*
X95909789Y-181236934D03*
X95909789Y-180236934D03*
X95909789Y-179236934D03*
X95909789Y-178236934D03*
X95909789Y-177236934D03*
X95909789Y-174236934D03*
X95909789Y-173236934D03*
X95909789Y-172236934D03*
X95909789Y-171236934D03*
X95909789Y-170236934D03*
X95909789Y-169236934D03*
X95909789Y-168236934D03*
X95909789Y-167236934D03*
X95909789Y-166236934D03*
X95909789Y-165236934D03*
X95909789Y-164236934D03*
X95909789Y-163236934D03*
X95909789Y-162236934D03*
X95909789Y-161236934D03*
X95909789Y-160236934D03*
X95909789Y-159236934D03*
X95909789Y-158236934D03*
X95909789Y-157236934D03*
X95909789Y-156236934D03*
X95909789Y-155236934D03*
X95909789Y-154236934D03*
X95909789Y-153236934D03*
X95909789Y-152236934D03*
X95909789Y-151236934D03*
X95909789Y-150236934D03*
X95909789Y-149236934D03*
X95909789Y-148236934D03*
X95909789Y-147236934D03*
X95909789Y-146236934D03*
X95909789Y-145236934D03*
X95909789Y-144236934D03*
X95909789Y-143236934D03*
X95909789Y-142236934D03*
X95909789Y-141236934D03*
X95909789Y-140236934D03*
X95909789Y-139236934D03*
X95909789Y-138236934D03*
X95909789Y-137236934D03*
X95909789Y-136236934D03*
X95909789Y-135236934D03*
X95909789Y-134236934D03*
X95909789Y-133236934D03*
X95909789Y-132236934D03*
X95909789Y-131236934D03*
X95909789Y-130236934D03*
X95909789Y-129236934D03*
X95909789Y-128236934D03*
X95909789Y-127236934D03*
X95909789Y-126236934D03*
X95909789Y-125236934D03*
X95909789Y-124236934D03*
X95909789Y-123236934D03*
X95909789Y-122236934D03*
X95909789Y-121236934D03*
X95909789Y-120236934D03*
X95909789Y-119236934D03*
X95909789Y-118236934D03*
X95909789Y-117236934D03*
X95909789Y-116236934D03*
X95909789Y-115236934D03*
X95909789Y-114236934D03*
X95909789Y-113236934D03*
X95909789Y-112236934D03*
X95909789Y-111236934D03*
X95909789Y-110236934D03*
X95909789Y-109236934D03*
X95909789Y-108236934D03*
X95909789Y-107236934D03*
X95909789Y-106236934D03*
X95909789Y-105236934D03*
X95909789Y-104236934D03*
X103109789Y-187236934D03*
X103109789Y-186236934D03*
X103109789Y-185236934D03*
X103109789Y-184236934D03*
X103109789Y-183236934D03*
X103109789Y-182236934D03*
X103109789Y-181236934D03*
X103109789Y-180236934D03*
X103109789Y-179236934D03*
X103109789Y-178236934D03*
X103109789Y-177236934D03*
X103109789Y-174236934D03*
X103109789Y-173236934D03*
X103109789Y-172236934D03*
X103109789Y-171236934D03*
X103109789Y-170236934D03*
X103109789Y-169236934D03*
X103109789Y-168236934D03*
X103109789Y-167236934D03*
X103109789Y-166236934D03*
X103109789Y-165236934D03*
X103109789Y-164236934D03*
X103109789Y-163236934D03*
X103109789Y-162236934D03*
X103109789Y-161236934D03*
X103109789Y-160236934D03*
X103109789Y-159236934D03*
X103109789Y-158236934D03*
X103109789Y-157236934D03*
X103109789Y-156236934D03*
X103109789Y-155236934D03*
X103109789Y-154236934D03*
X103109789Y-153236934D03*
X103109789Y-152236934D03*
X103109789Y-151236934D03*
X103109789Y-150236934D03*
X103109789Y-149236934D03*
X103109789Y-148236934D03*
X103109789Y-147236934D03*
X103109789Y-146236934D03*
X103109789Y-145236934D03*
X103109789Y-144236934D03*
X103109789Y-143236934D03*
X103109789Y-142236934D03*
X103109789Y-141236934D03*
X103109789Y-140236934D03*
X103109789Y-139236934D03*
X103109789Y-138236934D03*
X103109789Y-137236934D03*
X103109789Y-136236934D03*
X103109789Y-135236934D03*
X103109789Y-134236934D03*
X103109789Y-133236934D03*
X103109789Y-132236934D03*
X103109789Y-131236934D03*
X103109789Y-130236934D03*
X103109789Y-129236934D03*
X103109789Y-128236934D03*
X103109789Y-127236934D03*
X103109789Y-126236934D03*
X103109789Y-125236934D03*
X103109789Y-124236934D03*
X103109789Y-123236934D03*
X103109789Y-122236934D03*
X103109789Y-121236934D03*
X103109789Y-120236934D03*
X103109789Y-119236934D03*
X103109789Y-118236934D03*
X103109789Y-117236934D03*
X103109789Y-116236934D03*
X103109789Y-115236934D03*
X103109789Y-114236934D03*
X103109789Y-113236934D03*
X103109789Y-112236934D03*
X103109789Y-111236934D03*
X103109789Y-110236934D03*
X103109789Y-109236934D03*
X103109789Y-108236934D03*
X103109789Y-107236934D03*
X103109789Y-106236934D03*
X103109789Y-105236934D03*
X103109789Y-104236934D03*
G04 #@! TD*
D11*
G04 #@! TO.C,R148*
X427825000Y-199025000D03*
X428515000Y-199025000D03*
G04 #@! TD*
D17*
G04 #@! TO.C,U44*
X91759790Y-130028602D03*
D18*
X91809790Y-129628603D03*
X91809790Y-129228603D03*
X91809790Y-128828604D03*
D19*
X91609788Y-128228603D03*
X91209789Y-128228603D03*
X90809789Y-128228603D03*
X90409790Y-128228603D03*
D18*
X90209788Y-128828604D03*
X90209788Y-129228603D03*
X90209788Y-129628603D03*
X90209788Y-130028602D03*
D19*
X90409790Y-130628603D03*
X90809789Y-130628603D03*
X91209789Y-130628603D03*
X91609788Y-130628603D03*
G04 #@! TD*
D13*
G04 #@! TO.C,C36*
X62975000Y-148850000D03*
X62285000Y-148850000D03*
G04 #@! TD*
D11*
G04 #@! TO.C,C75*
X42935000Y-165025000D03*
X43625000Y-165025000D03*
G04 #@! TD*
D14*
G04 #@! TO.C,U26*
X61870000Y-106000000D03*
X61870000Y-105600000D03*
X61870000Y-105200000D03*
X61870000Y-104800000D03*
D15*
X61210000Y-104140000D03*
X60810000Y-104140000D03*
X60410000Y-104140000D03*
X60010000Y-104140000D03*
D14*
X59350000Y-104800000D03*
X59350000Y-105200000D03*
X59350000Y-105600000D03*
X59350000Y-106000000D03*
D15*
X60010000Y-106660000D03*
X60410000Y-106660000D03*
X60810000Y-106660000D03*
X61210000Y-106660000D03*
D16*
X60610000Y-105400000D03*
G04 #@! TD*
D11*
G04 #@! TO.C,C83*
X43060000Y-134750000D03*
X43750000Y-134750000D03*
G04 #@! TD*
D14*
G04 #@! TO.C,U38*
X86872289Y-153086934D03*
X86872289Y-152686934D03*
X86872289Y-152286934D03*
X86872289Y-151886934D03*
D15*
X86212289Y-151226934D03*
X85812289Y-151226934D03*
X85412289Y-151226934D03*
X85012289Y-151226934D03*
D14*
X84352289Y-151886934D03*
X84352289Y-152286934D03*
X84352289Y-152686934D03*
X84352289Y-153086934D03*
D15*
X85012289Y-153746934D03*
X85412289Y-153746934D03*
X85812289Y-153746934D03*
X86212289Y-153746934D03*
D16*
X85612289Y-152486934D03*
G04 #@! TD*
D11*
G04 #@! TO.C,C20*
X67860000Y-150550000D03*
X68550000Y-150550000D03*
G04 #@! TD*
G04 #@! TO.C,R153*
X420935000Y-203039286D03*
X421625000Y-203039286D03*
G04 #@! TD*
G04 #@! TO.C,C3*
X14001400Y-118141000D03*
X14691400Y-118141000D03*
G04 #@! TD*
D23*
G04 #@! TO.C,U40*
X103402240Y-194037709D03*
D24*
X103002240Y-193986909D03*
D25*
X102302191Y-194286934D03*
X102302191Y-194686933D03*
X102302191Y-195086932D03*
D24*
X103002240Y-195386957D03*
X103402240Y-195386957D03*
D25*
X104102289Y-195086932D03*
X104102289Y-194686933D03*
X104102289Y-194286934D03*
G04 #@! TD*
D14*
G04 #@! TO.C,U74*
X36870000Y-130750000D03*
X36870000Y-130350000D03*
X36870000Y-129950000D03*
X36870000Y-129550000D03*
D15*
X36210000Y-128890000D03*
X35810000Y-128890000D03*
X35410000Y-128890000D03*
X35010000Y-128890000D03*
D14*
X34350000Y-129550000D03*
X34350000Y-129950000D03*
X34350000Y-130350000D03*
X34350000Y-130750000D03*
D15*
X35010000Y-131410000D03*
X35410000Y-131410000D03*
X35810000Y-131410000D03*
X36210000Y-131410000D03*
D16*
X35610000Y-130150000D03*
G04 #@! TD*
D11*
G04 #@! TO.C,C74*
X42935000Y-162075000D03*
X43625000Y-162075000D03*
G04 #@! TD*
G04 #@! TO.C,C76*
X41885000Y-171000000D03*
X42575000Y-171000000D03*
G04 #@! TD*
D13*
G04 #@! TO.C,R51*
X25700000Y-95900000D03*
X25010000Y-95900000D03*
G04 #@! TD*
D12*
G04 #@! TO.C,C18*
X61350000Y-132560000D03*
X61350000Y-133250000D03*
G04 #@! TD*
D13*
G04 #@! TO.C,R84*
X21925000Y-91500000D03*
X21235000Y-91500000D03*
G04 #@! TD*
D11*
G04 #@! TO.C,C55*
X92962289Y-122836934D03*
X93652289Y-122836934D03*
G04 #@! TD*
D13*
G04 #@! TO.C,R17*
X86774789Y-145136934D03*
X86084789Y-145136934D03*
G04 #@! TD*
D36*
G04 #@! TO.C,R1*
X17308000Y-119958500D03*
X17308000Y-118308500D03*
G04 #@! TD*
D17*
G04 #@! TO.C,U80*
X41757501Y-118058334D03*
D18*
X41807501Y-117658335D03*
X41807501Y-117258335D03*
X41807501Y-116858336D03*
D19*
X41607499Y-116258335D03*
X41207500Y-116258335D03*
X40807500Y-116258335D03*
X40407501Y-116258335D03*
D18*
X40207499Y-116858336D03*
X40207499Y-117258335D03*
X40207499Y-117658335D03*
X40207499Y-118058334D03*
D19*
X40407501Y-118658335D03*
X40807500Y-118658335D03*
X41207500Y-118658335D03*
X41607499Y-118658335D03*
G04 #@! TD*
D36*
G04 #@! TO.C,R2*
X16723800Y-127955700D03*
X16723800Y-126305700D03*
G04 #@! TD*
D14*
G04 #@! TO.C,U51*
X86872289Y-105986934D03*
X86872289Y-105586934D03*
X86872289Y-105186934D03*
X86872289Y-104786934D03*
D15*
X86212289Y-104126934D03*
X85812289Y-104126934D03*
X85412289Y-104126934D03*
X85012289Y-104126934D03*
D14*
X84352289Y-104786934D03*
X84352289Y-105186934D03*
X84352289Y-105586934D03*
X84352289Y-105986934D03*
D15*
X85012289Y-106646934D03*
X85412289Y-106646934D03*
X85812289Y-106646934D03*
X86212289Y-106646934D03*
D16*
X85612289Y-105386934D03*
G04 #@! TD*
D12*
G04 #@! TO.C,C16*
X61300000Y-140960000D03*
X61300000Y-141650000D03*
G04 #@! TD*
D17*
G04 #@! TO.C,U77*
X41757501Y-106074999D03*
D18*
X41807501Y-105675000D03*
X41807501Y-105275000D03*
X41807501Y-104875001D03*
D19*
X41607499Y-104275000D03*
X41207500Y-104275000D03*
X40807500Y-104275000D03*
X40407501Y-104275000D03*
D18*
X40207499Y-104875001D03*
X40207499Y-105275000D03*
X40207499Y-105675000D03*
X40207499Y-106074999D03*
D19*
X40407501Y-106675000D03*
X40807500Y-106675000D03*
X41207500Y-106675000D03*
X41607499Y-106675000D03*
G04 #@! TD*
D13*
G04 #@! TO.C,C51*
X87977289Y-148836934D03*
X87287289Y-148836934D03*
G04 #@! TD*
G04 #@! TO.C,R13*
X61757500Y-145950000D03*
X61067500Y-145950000D03*
G04 #@! TD*
D12*
G04 #@! TO.C,R163*
X417150000Y-208500000D03*
X417150000Y-209190000D03*
G04 #@! TD*
D11*
G04 #@! TO.C,R146*
X427825000Y-197375000D03*
X428515000Y-197375000D03*
G04 #@! TD*
D17*
G04 #@! TO.C,U10*
X66757501Y-152349999D03*
D18*
X66807501Y-151950000D03*
X66807501Y-151550000D03*
X66807501Y-151150001D03*
D19*
X66607499Y-150550000D03*
X66207500Y-150550000D03*
X65807500Y-150550000D03*
X65407501Y-150550000D03*
D18*
X65207499Y-151150001D03*
X65207499Y-151550000D03*
X65207499Y-151950000D03*
X65207499Y-152349999D03*
D19*
X65407501Y-152950000D03*
X65807500Y-152950000D03*
X66207500Y-152950000D03*
X66607499Y-152950000D03*
G04 #@! TD*
D13*
G04 #@! TO.C,R14*
X86759789Y-145936934D03*
X86069789Y-145936934D03*
G04 #@! TD*
D11*
G04 #@! TO.C,C94*
X67960000Y-122850000D03*
X68650000Y-122850000D03*
G04 #@! TD*
D17*
G04 #@! TO.C,U45*
X91759790Y-134023047D03*
D18*
X91809790Y-133623048D03*
X91809790Y-133223048D03*
X91809790Y-132823049D03*
D19*
X91609788Y-132223048D03*
X91209789Y-132223048D03*
X90809789Y-132223048D03*
X90409790Y-132223048D03*
D18*
X90209788Y-132823049D03*
X90209788Y-133223048D03*
X90209788Y-133623048D03*
X90209788Y-134023047D03*
D19*
X90409790Y-134623048D03*
X90809789Y-134623048D03*
X91209789Y-134623048D03*
X91609788Y-134623048D03*
G04 #@! TD*
D12*
G04 #@! TO.C,C53*
X86302289Y-140946934D03*
X86302289Y-141636934D03*
G04 #@! TD*
D13*
G04 #@! TO.C,R105*
X25700000Y-88700000D03*
X25010000Y-88700000D03*
G04 #@! TD*
G04 #@! TO.C,R15*
X36757500Y-145950000D03*
X36067500Y-145950000D03*
G04 #@! TD*
D20*
G04 #@! TO.C,U56*
X37975000Y-170050000D03*
X37975000Y-169400000D03*
X37975000Y-168750000D03*
X37975000Y-168100000D03*
X35700000Y-168100000D03*
X35700000Y-168750000D03*
X35700000Y-169400000D03*
X35700000Y-170050000D03*
G04 #@! TD*
D11*
G04 #@! TO.C,R152*
X420935000Y-202250000D03*
X421625000Y-202250000D03*
G04 #@! TD*
D13*
G04 #@! TO.C,R11*
X86767289Y-146736934D03*
X86077289Y-146736934D03*
G04 #@! TD*
D11*
G04 #@! TO.C,C99*
X42935000Y-151675000D03*
X43625000Y-151675000D03*
G04 #@! TD*
G04 #@! TO.C,C41*
X67910000Y-138750000D03*
X68600000Y-138750000D03*
G04 #@! TD*
G04 #@! TO.C,C61*
X92912289Y-138736934D03*
X93602289Y-138736934D03*
G04 #@! TD*
D13*
G04 #@! TO.C,R129*
X21925000Y-85500000D03*
X21235000Y-85500000D03*
G04 #@! TD*
D11*
G04 #@! TO.C,C37*
X60175000Y-171850000D03*
X60865000Y-171850000D03*
G04 #@! TD*
D17*
G04 #@! TO.C,U72*
X41757501Y-126047223D03*
D18*
X41807501Y-125647224D03*
X41807501Y-125247224D03*
X41807501Y-124847225D03*
D19*
X41607499Y-124247224D03*
X41207500Y-124247224D03*
X40807500Y-124247224D03*
X40407501Y-124247224D03*
D18*
X40207499Y-124847225D03*
X40207499Y-125247224D03*
X40207499Y-125647224D03*
X40207499Y-126047223D03*
D19*
X40407501Y-126647224D03*
X40807500Y-126647224D03*
X41207500Y-126647224D03*
X41607499Y-126647224D03*
G04 #@! TD*
D17*
G04 #@! TO.C,U59*
X41757501Y-160099999D03*
D18*
X41807501Y-159700000D03*
X41807501Y-159300000D03*
X41807501Y-158900001D03*
D19*
X41607499Y-158300000D03*
X41207500Y-158300000D03*
X40807500Y-158300000D03*
X40407501Y-158300000D03*
D18*
X40207499Y-158900001D03*
X40207499Y-159300000D03*
X40207499Y-159700000D03*
X40207499Y-160099999D03*
D19*
X40407501Y-160700000D03*
X40807500Y-160700000D03*
X41207500Y-160700000D03*
X41607499Y-160700000D03*
G04 #@! TD*
D11*
G04 #@! TO.C,R155*
X420935000Y-203828572D03*
X421625000Y-203828572D03*
G04 #@! TD*
D13*
G04 #@! TO.C,R102*
X21925000Y-89100000D03*
X21235000Y-89100000D03*
G04 #@! TD*
D17*
G04 #@! TO.C,U34*
X91759790Y-160086933D03*
D18*
X91809790Y-159686934D03*
X91809790Y-159286934D03*
X91809790Y-158886935D03*
D19*
X91609788Y-158286934D03*
X91209789Y-158286934D03*
X90809789Y-158286934D03*
X90409790Y-158286934D03*
D18*
X90209788Y-158886935D03*
X90209788Y-159286934D03*
X90209788Y-159686934D03*
X90209788Y-160086933D03*
D19*
X90409790Y-160686934D03*
X90809789Y-160686934D03*
X91209789Y-160686934D03*
X91609788Y-160686934D03*
G04 #@! TD*
D17*
G04 #@! TO.C,U29*
X66757501Y-114063889D03*
D18*
X66807501Y-113663890D03*
X66807501Y-113263890D03*
X66807501Y-112863891D03*
D19*
X66607499Y-112263890D03*
X66207500Y-112263890D03*
X65807500Y-112263890D03*
X65407501Y-112263890D03*
D18*
X65207499Y-112863891D03*
X65207499Y-113263890D03*
X65207499Y-113663890D03*
X65207499Y-114063889D03*
D19*
X65407501Y-114663890D03*
X65807500Y-114663890D03*
X66207500Y-114663890D03*
X66607499Y-114663890D03*
G04 #@! TD*
D13*
G04 #@! TO.C,R6*
X11646000Y-92692174D03*
X10956000Y-92692174D03*
G04 #@! TD*
D17*
G04 #@! TO.C,U60*
X41757501Y-152349999D03*
D18*
X41807501Y-151950000D03*
X41807501Y-151550000D03*
X41807501Y-151150001D03*
D19*
X41607499Y-150550000D03*
X41207500Y-150550000D03*
X40807500Y-150550000D03*
X40407501Y-150550000D03*
D18*
X40207499Y-151150001D03*
X40207499Y-151550000D03*
X40207499Y-151950000D03*
X40207499Y-152349999D03*
D19*
X40407501Y-152950000D03*
X40807500Y-152950000D03*
X41207500Y-152950000D03*
X41607499Y-152950000D03*
G04 #@! TD*
D34*
G04 #@! TO.C,C1*
X13571400Y-115982000D03*
X15121400Y-115982000D03*
G04 #@! TD*
D17*
G04 #@! TO.C,U22*
X66757501Y-126047223D03*
D18*
X66807501Y-125647224D03*
X66807501Y-125247224D03*
X66807501Y-124847225D03*
D19*
X66607499Y-124247224D03*
X66207500Y-124247224D03*
X65807500Y-124247224D03*
X65407501Y-124247224D03*
D18*
X65207499Y-124847225D03*
X65207499Y-125247224D03*
X65207499Y-125647224D03*
X65207499Y-126047223D03*
D19*
X65407501Y-126647224D03*
X65807500Y-126647224D03*
X66207500Y-126647224D03*
X66607499Y-126647224D03*
G04 #@! TD*
D11*
G04 #@! TO.C,C31*
X66885000Y-171000000D03*
X67575000Y-171000000D03*
G04 #@! TD*
D14*
G04 #@! TO.C,U39*
X86872289Y-175786934D03*
X86872289Y-175386934D03*
X86872289Y-174986934D03*
X86872289Y-174586934D03*
D15*
X86212289Y-173926934D03*
X85812289Y-173926934D03*
X85412289Y-173926934D03*
X85012289Y-173926934D03*
D14*
X84352289Y-174586934D03*
X84352289Y-174986934D03*
X84352289Y-175386934D03*
X84352289Y-175786934D03*
D15*
X85012289Y-176446934D03*
X85412289Y-176446934D03*
X85812289Y-176446934D03*
X86212289Y-176446934D03*
D16*
X85612289Y-175186934D03*
G04 #@! TD*
D12*
G04 #@! TO.C,C56*
X86352289Y-132546934D03*
X86352289Y-133236934D03*
G04 #@! TD*
D11*
G04 #@! TO.C,C69*
X35175000Y-165800000D03*
X35865000Y-165800000D03*
G04 #@! TD*
D35*
G04 #@! TO.C,C7*
X8519600Y-119855200D03*
X8519600Y-121405200D03*
G04 #@! TD*
D26*
G04 #@! TO.C,C2*
X6000000Y-107800000D03*
X4450000Y-107800000D03*
G04 #@! TD*
M02*
